<svg viewBox="0 0 38 34" fill="none" xmlns="http://www.w3.org/2000/svg">
<path d="M0.163086 11.5615C0.307817 11.2913 0.423602 10.9922 0.616576 10.751C0.983228 10.2878 1.49461 10.0466 2.08318 10.1238C2.87438 10.2299 3.24103 9.92119 3.60768 9.19753C5.36375 5.74329 8.03645 3.20567 11.5486 1.57504C14.2888 0.291757 17.1834 -0.209977 20.1939 0.0794847C25.0086 0.552272 28.9356 2.70394 31.975 6.45729C32.8047 7.48006 33.4898 8.59931 34.0301 9.79576C34.1363 10.0273 34.2521 10.1335 34.5126 10.1142C34.7827 10.0852 35.0625 10.1045 35.3424 10.1142C36.3555 10.1431 37.1081 10.8861 37.1467 11.9088C37.1563 12.1886 37.1467 12.4588 37.1467 12.7386C37.1467 15.7587 37.1467 18.7787 37.1467 21.7988C37.1467 23.1303 36.423 23.8926 35.0915 23.825C34.3775 23.7864 34.0784 24.0469 33.76 24.6644C31.9942 28.1766 29.2926 30.7431 25.7322 32.4027C23.0016 33.6667 20.1167 34.1684 17.1256 33.879C12.3108 33.4062 8.38381 31.2545 5.34445 27.5012C4.51466 26.4784 3.8296 25.3592 3.28927 24.1627C3.18314 23.9311 3.06735 23.825 2.80684 23.854C2.56562 23.8829 2.3244 23.8636 2.08318 23.854C1.14726 23.8443 0.549035 23.4101 0.240276 22.5224C0.220978 22.4838 0.192032 22.4452 0.172735 22.4066C0.163086 18.7787 0.163086 15.1701 0.163086 11.5615ZM18.6501 22.397C24.1305 22.397 29.6014 22.397 35.0818 22.397C35.6222 22.397 35.709 22.3102 35.709 21.7698C35.709 18.5665 35.709 15.3631 35.709 12.1693C35.709 11.6483 35.6222 11.5615 35.1011 11.5615C24.1498 11.5615 13.1985 11.5615 2.24721 11.5615C1.70688 11.5615 1.62004 11.6483 1.62004 12.1886C1.62004 15.3631 1.62004 18.5472 1.62004 21.7216C1.62004 22.3391 1.68759 22.4066 2.29546 22.4066C7.74699 22.397 13.1985 22.397 18.6501 22.397ZM32.5442 10.1142C30.354 5.34769 24.8252 1.0926 17.7817 1.47855C11.1819 1.83555 6.47336 6.22573 4.80413 10.0949C4.82342 10.1045 4.85237 10.1142 4.87167 10.1142C5.22867 10.1142 5.59532 10.0949 5.95232 10.1238C6.26108 10.1528 6.42511 10.037 6.56984 9.77646C7.62156 7.98179 9.01097 6.49589 10.7381 5.34769C14.3274 2.96445 18.2255 2.34694 22.3841 3.41795C22.828 3.53373 23.2621 3.67846 23.677 3.85214C24.0533 4.00652 24.2077 4.39247 24.0823 4.73982C23.9472 5.09682 23.5999 5.28015 23.2043 5.18366C23.0788 5.15472 22.9534 5.09682 22.828 5.06788C21.8727 4.84596 20.9175 4.52755 19.9526 4.43106C15.9002 4.03546 12.417 5.31875 9.5513 8.21336C9.00132 8.77299 8.54783 9.41945 8.0461 10.0273C8.07505 10.0563 8.09434 10.0852 8.12329 10.1142C8.63467 10.1142 9.1557 10.1238 9.66709 10.1045C9.76357 10.1045 9.88901 10.0177 9.95655 9.94049C10.9311 8.7344 12.1179 7.78882 13.488 7.07481C15.5721 5.99416 17.7913 5.55996 20.1263 5.88802C23.0402 6.30292 25.4621 7.65374 27.3532 9.92119C27.4304 10.008 27.5655 10.1045 27.6716 10.1045C29.283 10.1142 30.8943 10.1142 32.5442 10.1142ZM4.77518 23.8443C6.92685 28.5529 12.4363 32.8466 19.4991 32.4799C26.0699 32.1326 30.8075 27.8003 32.5153 23.8636C32.496 23.854 32.467 23.8443 32.4477 23.8443C32.0521 23.8443 31.6565 23.854 31.2609 23.8347C31.039 23.825 30.9136 23.9022 30.8075 24.0952C29.4759 26.3723 27.6523 28.1573 25.3173 29.3827C21.5833 31.351 17.7045 31.5729 13.7292 30.1642C13.295 30.0098 13.102 29.6432 13.2178 29.2572C13.3433 28.852 13.7099 28.6687 14.173 28.7941C14.3081 28.8327 14.4529 28.8809 14.5879 28.9195C16.2958 29.4985 18.0518 29.7204 19.8465 29.5467C23.32 29.1994 26.1664 27.6749 28.4146 25.0118C28.7137 24.6548 28.9742 24.2689 29.2926 23.8347C28.6751 23.8347 28.1444 23.825 27.6234 23.8443C27.5365 23.8443 27.4304 23.9311 27.3725 24.0083C26.398 25.2144 25.2112 26.16 23.8411 26.874C21.7569 27.9547 19.5377 28.3985 17.2027 28.0608C14.2888 27.6459 11.867 26.2951 9.97585 24.0276C9.89866 23.9408 9.76357 23.8443 9.65744 23.8443C8.03645 23.8443 6.42511 23.8443 4.77518 23.8443ZM11.8477 10.0756C16.3923 10.0756 20.9368 10.0756 25.5103 10.0756C21.4289 5.99416 15.0511 6.61167 11.8477 10.0756ZM11.7898 23.8636C15.8809 27.9643 22.249 27.3468 25.4814 23.8636C20.9272 23.8636 16.3923 23.8636 11.7898 23.8636Z" fill="white"/>
<path d="M17.7337 17.3407C17.9845 17.7941 18.2258 18.2283 18.467 18.6722C18.631 18.9809 18.5442 19.2125 18.2258 19.3765C17.9266 19.5309 17.6951 19.473 17.531 19.1739C17.2898 18.7204 17.0583 18.2573 16.817 17.7941C16.653 17.4757 16.653 17.4757 16.2092 17.5047C16.2092 17.9582 16.2092 18.4213 16.2092 18.8845C16.2092 19.2704 16.0741 19.4151 15.7074 19.4248C15.3215 19.4344 15.1768 19.2897 15.1768 18.8845C15.1768 17.6012 15.1768 16.3082 15.1768 15.025C15.1768 14.5908 15.2443 14.5136 15.6785 14.5232C16.2381 14.5329 16.8074 14.5039 17.367 14.5811C18.0424 14.668 18.3994 15.0346 18.5056 15.6135C18.631 16.3082 18.3994 16.9065 17.8591 17.2538C17.8205 17.2731 17.7819 17.3021 17.7337 17.3407ZM16.2188 16.7038C16.653 16.6266 17.1451 16.8775 17.3863 16.3951C17.4828 16.1925 17.4539 15.8065 17.3188 15.6328C17.039 15.2855 16.6048 15.4784 16.2188 15.4592C16.2188 15.8837 16.2188 16.26 16.2188 16.7038Z" fill="white"/>
<path d="M31.4248 16.9655C31.4248 16.3094 31.4345 15.6436 31.4248 14.9875C31.4248 14.727 31.5213 14.5436 31.7818 14.5436C32.3897 14.5436 33.0072 14.5244 33.6151 14.6015C34.2712 14.6884 34.6668 15.1901 34.6957 15.8559C34.7247 16.5602 34.7247 17.2742 34.7054 17.9786C34.6764 18.847 34.1843 19.3584 33.316 19.4163C32.8335 19.4549 32.3511 19.4356 31.8783 19.4259C31.5792 19.4259 31.4248 19.2715 31.4345 18.9435C31.4345 18.2874 31.4248 17.6312 31.4248 16.9655ZM32.4862 18.5093C32.7081 18.5093 32.9011 18.5093 33.094 18.5093C33.4221 18.5093 33.6344 18.3356 33.6537 18.0172C33.673 17.3225 33.673 16.6278 33.6537 15.9331C33.644 15.6822 33.4896 15.4989 33.2291 15.4699C32.9975 15.4506 32.7563 15.4699 32.4958 15.4699C32.4862 16.4734 32.4862 17.4672 32.4862 18.5093Z" fill="white"/>
<path d="M19.238 16.9839C19.238 16.7331 19.238 16.4822 19.238 16.2313C19.2477 15.006 19.9328 14.3981 21.1485 14.5332C21.9686 14.62 22.4511 15.0445 22.4993 15.855C22.5476 16.6462 22.5476 17.4374 22.4897 18.2286C22.4414 18.933 21.9686 19.3575 21.2643 19.4347C20.9941 19.4637 20.7143 19.4637 20.4441 19.4251C19.8073 19.3382 19.3828 18.9426 19.2959 18.3155C19.2284 17.8813 19.238 17.4278 19.2188 16.9839C19.2187 16.9839 19.2284 16.9839 19.238 16.9839ZM21.4766 17.0032C21.4766 16.6655 21.4958 16.3278 21.4766 15.9901C21.4573 15.6235 21.245 15.4498 20.888 15.4498C20.5406 15.4498 20.338 15.6138 20.3187 15.9708C20.2994 16.6559 20.2994 17.3409 20.3187 18.026C20.3284 18.3637 20.5599 18.5567 20.8783 18.5567C21.216 18.5663 21.4476 18.3637 21.4669 18.0067C21.4862 17.669 21.4766 17.3313 21.4766 17.0032Z" fill="white"/>
<path d="M4.56236 14.4854C4.96761 14.4854 5.16059 14.6301 5.29567 15.0546C5.67197 16.2704 6.03862 17.4861 6.41492 18.7018C6.54036 19.1071 6.44387 19.2808 6.03862 19.3966C5.69127 19.493 5.52724 19.3966 5.4211 19.0106C5.24742 18.4027 5.24743 18.4027 4.62026 18.4027C4.61061 18.4027 4.60096 18.4027 4.58166 18.4027C3.85801 18.4027 3.84836 18.4027 3.63609 19.1071C3.5396 19.4448 3.31768 19.4641 3.04751 19.3966C2.68086 19.3097 2.53613 19.1167 2.63262 18.8176C3.01857 17.5343 3.42381 16.2414 3.80976 14.9581C3.92555 14.5818 4.20536 14.5046 4.56236 14.4854ZM4.07028 17.5536C4.39834 17.5536 4.69745 17.5536 5.0255 17.5536C4.87112 16.9747 4.71674 16.4344 4.54307 15.7976C4.36939 16.444 4.21501 16.994 4.07028 17.5536Z" fill="white"/>
<path d="M28.6463 17.3795C28.6367 17.5338 28.627 17.64 28.627 17.7461C28.627 17.9873 28.627 18.2189 28.627 18.5084C29.1867 18.5084 29.7077 18.5084 30.2287 18.5084C30.6243 18.5084 30.7787 18.6917 30.7304 19.068C30.7015 19.2899 30.5954 19.425 30.3541 19.425C29.5726 19.425 28.7911 19.425 28.0095 19.4153C27.72 19.4153 27.585 19.261 27.585 18.9619C27.5946 17.64 27.5946 16.3181 27.585 14.9962C27.585 14.6489 27.7586 14.5234 28.0674 14.5234C28.8103 14.5234 29.563 14.5234 30.3059 14.5234C30.6243 14.5234 30.7401 14.6971 30.7401 14.9769C30.7401 15.2567 30.634 15.4497 30.3252 15.4497C29.7752 15.4497 29.2252 15.4497 28.656 15.4497C28.656 15.8357 28.656 16.1734 28.656 16.5786C28.9454 16.5786 29.2252 16.5786 29.5147 16.5786C29.7849 16.5786 29.9489 16.6944 29.9489 16.9839C29.9489 17.2733 29.7945 17.3988 29.5147 17.3891C29.2445 17.3795 28.9647 17.3795 28.6463 17.3795Z" fill="white"/>
<path d="M8.14265 17.6403C8.14265 18.1324 8.1523 18.5376 8.14265 18.9525C8.133 19.2999 7.97862 19.4349 7.62162 19.4349C7.26461 19.4349 7.10059 19.2902 7.10059 18.9525C7.10059 17.6306 7.10059 16.3088 7.10059 14.9772C7.10059 14.7167 7.19707 14.543 7.45759 14.5334C8.05581 14.5237 8.66368 14.4948 9.2619 14.572C10.1013 14.6781 10.5162 15.286 10.4583 16.1737C10.4005 17.071 9.93731 17.5727 9.08822 17.6403C8.78911 17.6499 8.49 17.6403 8.14265 17.6403ZM8.16195 16.8684C8.56719 16.7719 9.02068 17.0324 9.3005 16.5886C9.48382 16.2991 9.48382 15.9421 9.27155 15.6719C8.98209 15.2956 8.55754 15.4886 8.16195 15.4597C8.16195 15.9325 8.16195 16.3666 8.16195 16.8684Z" fill="white"/>
<path d="M12.1759 17.6303C12.1759 18.1417 12.1662 18.5566 12.1759 18.9811C12.1855 19.3478 11.9443 19.425 11.6548 19.4346C11.3075 19.4443 11.1338 19.2995 11.1338 18.9908C11.1338 17.6496 11.1338 16.2988 11.1338 14.9576C11.1338 14.7164 11.2303 14.5427 11.4715 14.5427C12.0987 14.5427 12.7258 14.5041 13.3433 14.591C14.1635 14.7068 14.5301 15.2857 14.4819 16.2216C14.4337 17.0514 13.9802 17.5628 13.189 17.6303C12.8706 17.6496 12.5425 17.6303 12.1759 17.6303ZM12.2144 15.4401C12.2144 15.9514 12.2144 16.3953 12.2144 16.8584C12.6293 16.7812 13.0828 17.0128 13.3433 16.569C13.5074 16.2795 13.517 15.9514 13.3144 15.6813C13.0346 15.276 12.6004 15.498 12.2144 15.4401Z" fill="white"/>
<path d="M25.0561 18.123C25.3552 17.0038 25.635 15.981 25.9052 14.9679C26.0113 14.5627 26.185 14.4565 26.542 14.5627C26.9376 14.6784 27.0244 14.8425 26.899 15.2574C26.5323 16.4731 26.1657 17.6889 25.7894 18.9046C25.6639 19.3195 25.4613 19.4739 25.0271 19.4642C24.6026 19.4642 24.4193 19.3195 24.2842 18.8853C23.9079 17.6696 23.5316 16.4538 23.1649 15.2381C23.0395 14.8425 23.1456 14.6592 23.5509 14.553C23.8982 14.4565 24.0623 14.5627 24.1684 14.9486C24.4289 15.8942 24.6894 16.8494 24.9499 17.795C24.9596 17.8722 24.9982 17.9494 25.0561 18.123Z" fill="white"/>
<path d="M25.3082 4.69211C25.7231 4.68247 26.0415 4.99122 26.0415 5.40612C26.0512 5.80172 25.7424 6.12013 25.3564 6.12978C24.9705 6.13943 24.6232 5.80172 24.6135 5.40612C24.6039 5.02017 24.9126 4.70176 25.3082 4.69211Z" fill="white"/>
<path d="M12.002 29.2672C11.5967 29.2672 11.2783 28.9585 11.2783 28.5436C11.2783 28.148 11.5871 27.8392 11.9827 27.8296C12.3783 27.8296 12.716 28.1673 12.716 28.5629C12.7063 28.9585 12.3976 29.2672 12.002 29.2672Z" fill="white"/>
</svg>
