<svg  viewBox="0 0 31 34" fill="none" xmlns="http://www.w3.org/2000/svg">
<path d="M29.8939 29.1981H28.6435V27.2266C28.6435 26.8695 28.354 26.58 27.9968 26.58H26.9145V14.3527H27.9968C28.354 14.3527 28.6435 14.0631 28.6435 13.706V11.0879C28.6435 10.7308 28.354 10.4413 27.9968 10.4413H26.9145V10.0802C26.9145 9.84187 26.7835 9.62297 26.5736 9.51032L17.7481 4.77501H19.4467C19.676 4.77501 19.8883 4.6535 20.0044 4.45569C20.1206 4.25787 20.1231 4.0133 20.0113 3.81303L19.215 2.38751L20.0112 0.962051C20.1231 0.761713 20.1204 0.517207 20.0044 0.31939C19.8883 0.121574 19.6761 0 19.4467 0H15.6502C15.293 0 15.0035 0.289579 15.0035 0.64667V3.99629L4.72683 9.51026C4.51692 9.62284 4.3859 9.8418 4.3859 10.0801V10.4412H3.30364C2.94648 10.4412 2.65697 10.7308 2.65697 11.0879V13.706C2.65697 14.0631 2.94648 14.3527 3.30364 14.3527H4.3859V26.5799H3.30364C2.94648 26.5799 2.65697 26.8695 2.65697 27.2266V29.198H1.40644C1.04928 29.198 0.759766 29.4876 0.759766 29.8447V32.4628C0.759766 32.8199 1.04928 33.1095 1.40644 33.1095H29.8939C30.251 33.1095 30.5406 32.8199 30.5406 32.4628V29.8447C30.5406 29.4876 30.2511 29.1981 29.8939 29.1981ZM25.6211 26.5799H24.1207V14.3527H25.6211V26.5799ZM17.8244 26.5799V14.3527H19.7725V26.5799H17.8244ZM11.528 26.5799V14.3527H13.4761V26.5799H11.528ZM8.47306 14.3527H10.2346V26.5799H8.47306V14.3527ZM14.7694 14.3527H16.531V26.5799H14.7694V14.3527ZM21.0657 14.3527H22.8273V26.5799H21.0657V14.3527ZM16.2969 1.29334H18.3447L17.9097 2.07213C17.8002 2.26813 17.8002 2.50688 17.9097 2.70289L18.3447 3.48167H16.2969V1.29334ZM15.6502 5.1171L25.573 10.4412H5.72736L15.6502 5.1171ZM3.95031 11.7345H27.3501V13.0593H3.95031V11.7345ZM5.67924 14.3527H7.17971V26.5799H5.67924V14.3527ZM3.95031 27.8732H27.3501V29.198H3.95031V27.8732ZM29.2473 31.8162H2.05311V30.4914H29.2472V31.8162H29.2473Z" fill="white"/>
</svg>
