<svg viewBox="0 0 37 36" fill="none" xmlns="http://www.w3.org/2000/svg">
<path d="M0.925781 17.2057C1.07523 16.4958 1.16864 15.7579 1.39282 15.0667C3.32636 9.19134 10.4627 7.08966 15.2826 10.9567C15.3853 11.0315 15.4787 11.1155 15.6002 11.2089C16.7211 10.2562 17.9727 9.57431 19.4579 9.21002C19.0282 8.78034 18.6359 8.37869 18.2343 7.96769C18.1595 7.89297 18.0942 7.8089 18.0101 7.74352C17.7486 7.51 17.5898 7.23911 17.7018 6.87482C17.8139 6.52921 18.1128 6.42646 18.4304 6.37042C20.1491 6.0902 21.8772 5.80063 23.5959 5.52975C23.8387 5.49238 23.9602 5.38964 24.0629 5.18414C24.8569 3.63357 25.6695 2.083 26.4635 0.532425C26.613 0.23352 26.7998 0 27.1641 0C27.5284 0 27.7245 0.224179 27.874 0.523084C28.6679 2.07366 29.4806 3.62423 30.2746 5.1748C30.3866 5.38964 30.5174 5.49238 30.7696 5.52975C32.507 5.80063 34.235 6.09954 35.9724 6.37976C36.29 6.4358 36.5516 6.55723 36.6543 6.8935C36.7571 7.22977 36.5983 7.47263 36.3741 7.69681C35.1598 8.92045 33.9548 10.1534 32.7405 11.3771C32.5257 11.5919 32.4603 11.7881 32.507 12.0776C32.7779 13.8057 33.0301 15.5337 33.301 17.2524C33.3477 17.57 33.2916 17.8316 33.0301 18.0277C32.7779 18.2145 32.5163 18.1959 32.2455 18.0557C31.5916 17.7288 30.9377 17.4019 30.2372 17.0469C30.2372 17.6261 30.2652 18.1492 30.2278 18.6816C30.0877 20.8767 29.3311 22.8756 28.2383 24.7624C26.7624 27.2938 24.8195 29.4328 22.6525 31.3851C20.9711 32.8983 19.1684 34.262 17.1134 35.2428C16.6837 35.4483 16.2353 35.6071 15.7963 35.7846C15.6562 35.7846 15.5161 35.7846 15.376 35.7846C14.6381 35.4483 13.8628 35.1774 13.1622 34.7758C9.69679 32.7862 6.8385 30.1054 4.4099 26.9575C3.02746 25.1548 1.89722 23.1652 1.32744 20.9047C1.14996 20.2228 1.06589 19.5129 0.935122 18.8217C0.925781 18.2799 0.925781 17.7475 0.925781 17.2057ZM28.9015 17.8783C28.8828 17.6448 28.8361 17.2431 28.8174 16.8321C28.7987 16.4491 28.6493 16.1876 28.2569 16.0568C27.9954 15.9728 27.7432 15.8233 27.5097 15.6832C27.2948 15.5524 27.1174 15.5711 26.9025 15.6832C25.3426 16.4772 23.7827 17.2524 22.2228 18.0371C21.9239 18.1865 21.6343 18.2612 21.3354 18.0464C21.0552 17.8409 21.0272 17.542 21.0739 17.2338C21.298 15.7859 21.4755 14.3288 21.7557 12.8903C21.9239 12.0496 21.8118 11.4331 21.1206 10.854C20.7376 10.5364 20.448 10.4337 19.9903 10.5364C18.5425 10.854 17.2909 11.5359 16.226 12.5634C15.7683 13.0024 15.4414 13.0024 14.993 12.5727C14.9463 12.5353 14.9089 12.4886 14.8716 12.4513C12.4897 10.3216 9.78085 9.74244 6.84784 11.0315C3.94286 12.3112 2.42031 14.637 2.34558 17.8409C2.29888 19.5876 2.79394 21.2316 3.5412 22.7822C5.8297 27.5086 9.47261 30.9741 13.9375 33.5988C15.7963 34.6917 15.3666 34.6076 17.3282 33.5988C19.0096 32.7395 20.4667 31.5438 21.8492 30.2735C23.9789 28.3119 25.9311 26.1822 27.3229 23.6042C28.2569 21.8668 28.8641 20.0453 28.9015 17.8783ZM27.2014 2.25113C27.1267 2.3819 27.0707 2.47531 27.0146 2.57806C26.3794 3.79236 25.7443 5.016 25.1278 6.23965C24.9503 6.5946 24.6981 6.79075 24.3058 6.8468C23.4184 6.97757 22.5404 7.13636 21.653 7.27648C21.0645 7.36988 20.4761 7.47263 19.8409 7.58472C19.9717 7.71549 20.0464 7.8089 20.1305 7.88363C21.1019 8.87375 22.0733 9.85453 23.0541 10.8447C23.269 11.0595 23.3997 11.3024 23.353 11.6199C23.2036 12.582 23.0541 13.5535 22.9047 14.5156C22.8206 15.076 22.7459 15.6271 22.6525 16.2436C22.8206 16.1596 22.9233 16.1129 23.0261 16.0662C24.2497 15.4497 25.4827 14.8425 26.7064 14.2167C27.052 14.0392 27.3602 14.0205 27.6965 14.2167C28.0701 14.4222 28.4624 14.609 28.8454 14.7958C29.7982 15.2722 30.7603 15.7486 31.7224 16.2343C31.7317 16.1689 31.7411 16.1409 31.7411 16.1035C31.5262 14.6744 31.3114 13.2452 31.0872 11.8254C31.0218 11.4144 31.1059 11.0969 31.4141 10.7886C32.4043 9.81717 33.3664 8.81771 34.3378 7.82758C34.4032 7.75286 34.4686 7.67813 34.5526 7.57538C33.0675 7.33252 31.6383 7.08032 30.1998 6.86548C29.7421 6.8001 29.4526 6.5946 29.2377 6.17426C28.6399 4.97864 28.0141 3.79236 27.3976 2.60608C27.3509 2.50333 27.2855 2.39124 27.2014 2.25113Z" fill="white"/>
</svg>
