<svg viewBox="0 0 45 44" fill="none" xmlns="http://www.w3.org/2000/svg">
<path d="M38.0057 43.3577C27.6744 43.3577 17.3431 43.3577 7.01172 43.3577C6.97785 43.3351 6.94398 43.3013 6.9101 43.29C6.24393 42.9851 5.93907 42.4544 6.07457 41.8108C6.19877 41.2124 6.71816 40.8285 7.4182 40.8285C7.89243 40.8285 8.37794 40.8285 8.85217 40.8285C9.28123 40.8285 9.71029 40.8285 10.1958 40.8285C10.1958 40.1285 10.1506 39.4962 10.2071 38.8639C10.3426 37.1137 11.7653 35.5782 13.5154 35.4201C14.9268 35.2959 16.3607 35.3636 17.7834 35.341C17.9415 35.341 18.1108 35.341 18.3028 35.341C18.3028 35.1039 18.3028 34.9346 18.3028 34.7652C18.3028 32.4505 18.2915 30.1359 18.3028 27.8212C18.3141 25.9469 19.1609 24.5807 20.8772 23.8129C21.1594 23.6774 21.2385 23.5419 21.2385 23.2596C21.2272 18.5286 21.2385 13.809 21.2385 9.07802C21.2385 8.93124 21.2385 8.78445 21.2385 8.61509C21.0014 8.61509 20.832 8.61509 20.6626 8.61509C18.1673 8.61509 15.672 8.62638 13.1766 8.60379C12.6798 8.60379 12.4201 8.728 12.183 9.19093C11.9685 9.63128 11.5846 9.9926 11.2459 10.3652C11.0765 10.5459 10.8507 10.6701 10.6362 10.8168C10.7152 10.9749 10.7829 11.1104 10.862 11.2459C12.646 14.6219 14.4187 17.998 16.2365 21.3627C16.6091 22.0402 16.7108 22.7063 16.6091 23.4628C16.0785 27.5389 13.0412 30.3278 8.95379 30.4294C5.28419 30.5198 2.21302 28.3406 1.20812 24.8855C1.03875 24.3097 0.948421 23.7112 0.824219 23.1241C0.824219 22.8418 0.824219 22.5596 0.824219 22.2773C2.83403 18.4496 4.85513 14.6219 6.85365 10.8394C6.48104 10.512 6.10844 10.2523 5.81487 9.91356C5.53259 9.57483 5.35194 9.14577 5.09224 8.78445C5.0245 8.68283 4.84384 8.62638 4.70835 8.61509C4.04217 8.60379 3.38729 8.61509 2.72112 8.60379C1.88558 8.5925 1.33232 8.08441 1.32103 7.33919C1.32103 6.59398 1.863 6.0746 2.69854 6.0633C3.34213 6.05201 3.99701 6.05201 4.6406 6.0633C4.92288 6.0746 5.04708 5.97298 5.17128 5.71328C5.87133 4.21157 7.09076 3.43248 8.72797 3.42119C10.3878 3.42119 11.6185 4.20028 12.3185 5.72457C12.4427 5.99556 12.5895 6.0633 12.8605 6.05201C14.3961 6.04072 15.9317 6.05201 17.4785 6.05201C17.7608 6.05201 18.0318 6.05201 18.3592 6.05201C18.3592 5.35197 18.3367 4.68579 18.3592 4.03091C18.427 2.43887 19.1722 1.23073 20.5723 0.485516C20.9901 0.259695 21.4643 0.158075 21.9046 0C22.2998 0 22.695 0 23.0902 0C23.1241 0.0225821 23.158 0.0564553 23.1918 0.0677464C25.3823 0.553262 26.6356 2.10014 26.6469 4.33577C26.6469 4.90032 26.6469 5.45359 26.6469 5.99556C26.7146 6.02943 26.7372 6.05201 26.7598 6.05201C28.6115 6.05201 30.452 6.0633 32.3037 6.05201C32.4166 6.05201 32.5747 5.91652 32.6199 5.80361C33.3312 4.24544 34.5619 3.43248 36.2556 3.43248C37.9267 3.43248 39.1461 4.25673 39.8574 5.79232C39.9139 5.91652 40.1171 6.04072 40.2526 6.05201C40.9301 6.0746 41.6076 6.05201 42.285 6.0633C43.1206 6.0746 43.6738 6.59398 43.6625 7.33919C43.6512 8.07311 43.098 8.5925 42.2624 8.60379C41.5963 8.61509 40.9414 8.61509 40.2752 8.60379C40.0494 8.60379 39.9478 8.68283 39.8236 8.88607C39.5752 9.32642 39.2929 9.74419 38.9654 10.1281C38.7396 10.3991 38.4122 10.591 38.1299 10.8168C40.151 14.6445 42.1608 18.4609 44.1706 22.2773C44.1706 22.5596 44.1706 22.8418 44.1706 23.1241C44.1368 23.2596 44.1029 23.3951 44.0916 23.5306C43.8545 25.2355 43.2448 26.7937 42.0253 28.0244C39.6768 30.373 36.8427 30.994 33.7264 30.0342C30.6552 29.0858 28.9729 26.8502 28.4422 23.7225C28.318 22.9886 28.2841 22.2773 28.6793 21.5546C30.531 18.1335 32.3376 14.6897 34.1555 11.2572C34.2345 11.1104 34.3022 10.9636 34.3926 10.8056C33.6248 10.3652 33.0489 9.78936 32.7215 9.02156C32.586 8.71671 32.4279 8.61509 32.1005 8.61509C29.4922 8.62638 26.884 8.62638 24.2758 8.62638C24.129 8.62638 23.9709 8.62638 23.8354 8.62638C23.8128 8.71671 23.7903 8.76187 23.7903 8.79574C23.7903 13.6735 23.7903 18.5625 23.8015 23.4403C23.8015 23.5532 23.9257 23.7112 24.0387 23.7564C25.8226 24.5581 26.7146 25.9356 26.7146 27.8776C26.7146 30.1923 26.7146 32.507 26.7146 34.8217C26.7146 34.9797 26.7146 35.1491 26.7146 35.3523C28.0583 35.3523 29.3342 35.3523 30.6213 35.3523C33.1957 35.3523 34.8442 37.0008 34.8555 39.5865C34.8555 39.993 34.8555 40.3994 34.8555 40.8398C35.0474 40.8398 35.1829 40.8398 35.3184 40.8398C36.1088 40.8398 36.8992 40.8285 37.6896 40.8398C38.3219 40.8511 38.83 41.2576 38.9542 41.8221C39.0897 42.4318 38.7961 42.9964 38.2089 43.2787C38.1186 43.29 38.0622 43.3238 38.0057 43.3577ZM32.2924 40.8059C32.2924 40.3994 32.2924 40.0043 32.2924 39.6204C32.2924 38.3671 31.7956 37.8702 30.5536 37.8702C25.1903 37.8702 19.8271 37.8702 14.4638 37.8702C14.3058 37.8702 14.1477 37.859 14.0009 37.8815C13.4025 37.9493 12.8605 38.3558 12.7928 38.8977C12.725 39.5187 12.7815 40.151 12.7815 40.7946C19.2625 40.8059 25.7436 40.8059 32.2924 40.8059ZM4.22283 21.2385C7.27142 21.2385 10.241 21.2385 13.267 21.2385C11.754 18.3819 10.2636 15.5704 8.73926 12.7025C7.22625 15.5817 5.73583 18.3932 4.22283 21.2385ZM40.7833 21.2498C39.2703 18.3931 37.7799 15.5704 36.2556 12.7025C34.7313 15.593 33.2409 18.4044 31.7279 21.2498C34.7765 21.2498 37.746 21.2498 40.7833 21.2498ZM41.4495 23.8467C37.9831 23.8467 34.5281 23.8467 31.0843 23.8467C31.3214 25.9243 33.6925 27.8551 36.0636 27.9341C38.6041 28.0244 41.0204 26.1953 41.4495 23.8467ZM3.56795 23.8467C3.89539 26.1727 6.48104 28.0809 9.05541 27.9341C11.3927 27.7986 13.8654 25.7098 13.9106 23.8467C10.4668 23.8467 7.01172 23.8467 3.56795 23.8467ZM24.1629 35.3072C24.1629 35.1265 24.1629 34.991 24.1629 34.8442C24.1629 32.5296 24.1629 30.2149 24.1629 27.9115C24.1629 27.7309 24.1516 27.5389 24.129 27.3583C24.0387 26.6921 23.5644 26.2066 22.8983 26.0824C21.7353 25.8678 20.8659 26.5679 20.8546 27.7647C20.8433 30.1584 20.8546 32.5634 20.8546 34.9571C20.8546 35.0701 20.8659 35.183 20.8772 35.3072C21.9611 35.3072 23.0337 35.3072 24.1629 35.3072ZM24.1064 6.02943C24.1064 5.32938 24.1403 4.65192 24.0951 3.97446C24.0387 3.13892 23.3725 2.56307 22.5369 2.54049C21.6788 2.51791 20.9788 3.09375 20.911 3.94058C20.8546 4.62934 20.8997 5.31809 20.8997 6.02943C21.9837 6.02943 23.0337 6.02943 24.1064 6.02943ZM8.75055 5.9391C8.00534 5.9391 7.37304 6.5714 7.36175 7.30532C7.36175 8.07311 7.98276 8.70541 8.75055 8.70541C9.51834 8.70541 10.1393 8.0844 10.1393 7.30532C10.1281 6.5714 9.49576 5.9391 8.75055 5.9391ZM36.233 8.70541C37.0008 8.7167 37.6331 8.10699 37.6331 7.3279C37.6444 6.59398 37.0008 5.96168 36.2669 5.9391C35.5217 5.92781 34.8781 6.54882 34.8668 7.28274C34.8555 8.07311 35.4539 8.69412 36.233 8.70541Z" fill="white"/>
</svg>
