<svg width="34" height="28" viewBox="0 0 34 28" fill="none" xmlns="http://www.w3.org/2000/svg">
<path d="M23.4171 12.2311C23.4171 11.6013 23.1774 10.9711 22.6976 10.4882M23.4171 12.2311C23.4171 12.8628 23.2215 13.4896 22.7426 13.9308L13.9734 22.7C13.4911 23.1797 12.8608 23.4195 12.2311 23.4195C11.6013 23.4195 10.9713 23.1795 10.4887 22.7L1.71949 13.9308C1.23991 13.4479 1 12.8157 1 12.1859C1 11.5993 1.23987 10.9726 1.71955 10.4862L10.4863 1.71949C10.9726 1.23996 11.5994 1 12.186 1C12.8579 1 13.4896 1.23996 13.9283 1.71899L22.6976 10.4882M23.4171 12.2311C23.4171 11.6805 22.9191 11.0032 22.6976 10.4882M23.4171 12.2311C23.2306 13.2256 23.2252 13.2384 22.6976 13.9758L17.2114 19.462L17.003 24.2614C17.0444 25.593 18.1224 26.671 19.4511 26.671H30.637C31.9657 26.671 32.9986 25.593 32.9986 24.3095V13.0333C33.0437 11.7046 32.0108 10.6266 30.637 10.6266L22.6976 10.4882M5.81337 13.4344C5.14903 13.4344 4.65517 12.8954 4.65517 12.2762C4.65517 11.657 5.19416 11.118 5.81337 11.118C6.43258 11.118 7.0167 11.5692 7.0167 12.2311C7.0167 12.8929 6.48022 13.4344 5.81337 13.4344ZM12.2311 19.8522C11.5668 19.8522 11.0729 19.3132 11.0729 18.6939C11.0729 18.0747 11.6119 17.5357 12.2311 17.5357C12.8503 17.5357 13.3893 18.0747 13.3893 18.6939C13.3893 19.3132 12.898 19.8522 12.2311 19.8522ZM12.2311 13.4344C11.5668 13.4344 11.0729 12.8954 11.0729 12.2762C11.0729 11.657 11.6119 11.118 12.2311 11.118C12.8503 11.118 13.4345 11.5692 13.4345 12.2311C13.4345 12.8929 12.898 13.4344 12.2311 13.4344ZM12.2311 7.01664C11.5668 7.01664 11.0729 6.47765 11.0729 5.85844C11.0729 5.23923 11.6119 4.70024 12.2311 4.70024C12.8503 4.70024 13.3893 5.23923 13.3893 5.85844C13.3893 6.47765 12.898 7.01664 12.2311 7.01664ZM18.6489 13.4344C17.9845 13.4344 17.4907 12.8954 17.4907 12.2762C17.4907 11.657 18.0297 11.118 18.6489 11.118C19.2681 11.118 19.8071 11.657 19.8071 12.2762C19.8071 12.8954 19.3157 13.4344 18.6489 13.4344ZM25.0215 19.8522C24.3572 19.8522 23.8633 19.3132 23.8633 18.6939C23.8633 18.0747 24.4023 17.5357 25.0215 17.5357C25.6407 17.5357 26.1797 18.0747 26.1797 18.6939C26.1797 19.3132 25.7285 19.8522 25.0215 19.8522Z" stroke="white" stroke-width="2"/>
</svg>
