<svg width="32" height="32" viewBox="0 0 32 32" fill="none" xmlns="http://www.w3.org/2000/svg">
<path d="M30.666 32.0003C30.266 32.0003 29.9993 31.867 29.7327 31.6003L19.066 20.9337C18.5327 20.4003 18.5327 19.6003 19.066 19.067C19.5993 18.5337 20.3993 18.5337 20.9327 19.067L31.5993 29.7337C32.1327 30.267 32.1327 31.067 31.5993 31.6003C31.3327 31.867 31.066 32.0003 30.666 32.0003Z" fill="white"/>
<path d="M12 24C5.33333 24 0 18.6667 0 12C0 5.33333 5.33333 0 12 0C18.6667 0 24 5.33333 24 12C24 18.6667 18.6667 24 12 24ZM12 2.66667C6.8 2.66667 2.66667 6.8 2.66667 12C2.66667 17.2 6.8 21.3333 12 21.3333C17.2 21.3333 21.3333 17.2 21.3333 12C21.3333 6.8 17.2 2.66667 12 2.66667Z" fill="white"/>
<path d="M10 13L9.03848 12.7253L8.37524 15.0466L10.4856 13.8742L10 13ZM14.5 10.5L15.4417 10.8363L16.3344 8.33694L14.0144 9.62584L14.5 10.5ZM11.0583 17.1637C10.8725 17.6838 11.1436 18.256 11.6637 18.4417C12.1838 18.6275 12.756 18.3564 12.9417 17.8363L11.0583 17.1637ZM11.0385 5.72528L9.03848 12.7253L10.9615 13.2747L12.9615 6.27472L11.0385 5.72528ZM10.4856 13.8742L14.9856 11.3742L14.0144 9.62584L9.51436 12.1258L10.4856 13.8742ZM13.5583 10.1637L11.0583 17.1637L12.9417 17.8363L15.4417 10.8363L13.5583 10.1637Z" fill="white"/>
</svg>
