<svg width="38" height="35" viewBox="0 0 38 35" fill="none" xmlns="http://www.w3.org/2000/svg">
<path d="M29.8555 19.9277C34.1965 21.2972 37 23.4677 37 25.9112C37 30.0542 28.942 33.4112 19 33.4112C9.058 33.4112 1 30.0542 1 25.9112C1 23.4677 3.8035 21.2972 8.1445 19.9277" stroke="white" stroke-width="2" stroke-linecap="round"/>
<path fill-rule="evenodd" clip-rule="evenodd" d="M12.6354 3.64225L12.6429 3.63475C16.1559 0.12175 21.8529 0.12175 25.3644 3.63475C27.9369 6.20575 28.7079 10.0743 27.3159 13.4343L27.3039 13.4643C26.7819 14.7288 26.0154 15.8778 25.0494 16.8468L19.0044 22.9113L12.9399 16.8273C11.9709 15.8553 11.2014 14.6988 10.6779 13.4283C9.29491 10.0713 10.0674 6.21025 12.6354 3.64225Z" stroke="white" stroke-width="2"/>
<path fill-rule="evenodd" clip-rule="evenodd" d="M22.0017 9.87364C22.0017 11.5326 20.6577 12.8781 18.9972 12.8781C17.3367 12.8781 15.9912 11.5326 15.9912 9.87364C15.9912 8.21464 17.3367 6.86914 18.9972 6.86914C20.6577 6.86914 22.0017 8.21464 22.0017 9.87364Z" stroke="white" stroke-width="2"/>
</svg>
