<svg width="38" height="28" viewBox="0 0 38 28" fill="none" xmlns="http://www.w3.org/2000/svg">
<path d="M10.9539 16.7373C9.43773 16.7373 7.61363 17.0302 5.9539 16.7373M5.45382 10.2374C3.36164 11.5578 2.4299 12.2289 1.45383 13.2374C1.04454 13.8416 0.909332 14.2834 1.05956 14.8467C1.22312 15.4598 1.76221 15.8876 2.35444 16.1156C4.36976 16.8916 5.55205 16.8488 5.9539 16.7373M5.45382 10.2374C7.88964 5.53973 9.82377 3.73001 13.9538 1.73744C17.4213 0.654312 19.0976 0.859397 21.9538 1.73744C25.5757 3.4184 27.212 4.75569 28.9538 7.73744M5.45382 10.2374L5.9539 16.7373M28.9538 7.73744C28.9538 7.73744 34.4538 7.73744 35.4538 7.73744C36.4538 7.73744 36.4538 9.23744 36.4538 9.23744L36.3974 9.57567C36.1293 11.1843 34.9115 12.4691 33.3196 12.8228L30.4538 13.4597M28.9538 7.73744C28.9538 7.73744 24.4538 4.23757 21.9538 4.73744C19.4538 5.2373 17.9538 6.73744 17.9538 6.73744L23.4538 10.7374C23.4538 10.7374 11.9538 12.2374 10.4538 12.2374C8.95383 12.2374 9.95383 13.2374 9.95383 13.2374C12.8062 14.8731 14.6797 15.5903 17.9538 16.2374L30.4538 13.4597M5.9539 16.7373C6.67875 19.3943 8.69428 22.5148 13.4454 25.4322C13.7802 25.6378 14.1477 25.7862 14.5311 25.8716C17.2455 26.4761 18.9098 26.4484 21.4873 25.8495C21.7972 25.7775 22.0971 25.6638 22.3774 25.5132C26.4081 23.3467 28.1759 21.423 29.903 17.7261C30.2833 16.9119 30.529 16.0336 30.5424 15.1351C30.5507 14.5798 30.5161 14.0864 30.4538 13.4597" stroke="white" stroke-width="2"/>
</svg>
