<svg width="1010" height="907" fill="none" xmlns="http://www.w3.org/2000/svg"><path d="M415.321 121.55c-6.898-11.689-23.02-35.44-53.19-53.401-30.309-18.05-59.014-20.856-72.582-21.328 1.602 23.117 6.816 40.72 11.583 52.938 6.515 16.715 14.755 23.434 16.61 38.206 2.082 16.537-4.279 30.91-9.639 40.118a139.199 139.199 0 0 0-30.837-10.737c-20.49-4.506-30.219-1.692-42.591-4.466-12.372-2.773-29.259-11.55-46.3-39.613-5.637 5.157-16.057 16.179-21.068 33.318-4.645 15.886-2.31 29.031-.7 37.474 7.809 41.078 39.541 70.451 50.986 80.244-49.294 7.614-98.595 15.22-147.889 22.833 4.092 12.958 17.31 48.708 53.67 73.412 18.644 12.665 36.897 18.026 49.212 20.482a252.286 252.286 0 0 1-20.97 24.378c-.822.838-16.944 16.456-26.501 23.468-12.356 9.061-35.384 14.886-82.343-2.009 3.042 7.914 25.557 63.829 80.39 78.113 16.757 4.36 31.952 3.644 43.405 1.773-12.071 6.727-40.59 24.769-59.527 60.706C91.862 606.255 89.975 633 89.966 646.747c10.705-8.167 34.327-23.85 68.288-28.12 24.63-3.099 44.811 1.049 56.85 4.539-4.197 8.866-9.696 22.873-11.656 40.647-2.246 20.327-7.102 37.417-2.01 58.241 2.652 10.851 6.727 19.27 9.794 24.712 6.54 3.693 20.807 10.485 39.419 9.427 33.846-1.919 53.417-28.217 56.232-32.138a265.982 265.982 0 0 0 25.102 148.621c2.798-15.756 9.761-42.42 29.121-69.288 11.729-16.284 24.492-27.746 34.619-35.433a234.478 234.478 0 0 1 38.687 23.386c21.23 15.822 34.961 27.275 42.631 44.747 5.336 12.153 7.842 33.359-13.258 69.955 12.705-5.255 45.576-20.857 69.027-57.469 18.334-28.616 22.149-56.395 23.101-70.296a340.629 340.629 0 0 0 28.82 21.401c46.861 31.114 93.918 45.601 130.799 52.621-4.97-2.896-38.703-23.289-45.137-63.976-3.897-24.615 4.173-44.218 8.036-52.222 19.401-1.147 34.823.244 45.251 1.708 21.418 2.993 37.223 8.443 60.186 4.319a101.74 101.74 0 0 0 13.836-3.506c1.822-1.269 4.352-3.351 6.507-6.507 5.41-7.931 5.597-18.481.814-35.791-3.473-12.567-10.762-33.066-27.209-57.241 8.663 4.076 22.825 9.265 40.199 8.647 23.468-.83 40.086-11.705 66.246-29.657 14.275-9.794 33.033-24.151 53.019-44.153-65.562 5.612-86.777-5.897-93.154-18.571-1.822-3.611-6.605-15.577-9.704-30.308a156.173 156.173 0 0 1-2.879-20.189c8.833 3.262 22.8 7.069 39.434 5.238 12.007-1.317 18.359-5.222 35.417-9.972a512.18 512.18 0 0 1 43.177-10.046c-6.622-13.056-20.149-35.498-45.186-55.232-28.446-22.426-57.225-29.901-71.996-32.683a296.404 296.404 0 0 0 48.895-50.668 296.9 296.9 0 0 0 39.524-70.337c-10.9 7.605-36.132 22.987-71.655 25.151-25.883 1.57-46.479-4.531-58.241-9.038a411.797 411.797 0 0 0 2.009-33.138c.415-20.613-2.204-27.511-1-39.167 1.122-10.924 5.279-26.176 19.188-43.876 12.015-11.144 24.029-22.296 36.043-33.44-14.812-6.15-50.009-18.408-94.398-11.046-35.547 5.897-60.698 21.669-73.42 30.983a792.298 792.298 0 0 1-17.96-70.142 793.625 793.625 0 0 1-11.949-75.51c-1.774 16.106-7.76 48.578-32.236 78.528-9.949 12.177-20.523 20.962-29.528 27.177a346.194 346.194 0 0 1-30.682-29.617c-18.758-20.482-28.6-31.22-33.465-47.813-2.415-8.24-5.938-25.86 2.392-50.205-9.688 1.277-24.761 4.474-40.94 13.397-19.27 10.64-30.259 23.98-36.759 32.025-22.654 28.047-30.121 58.379-32.886 76.128z" fill="#F8ED7A"/><path d="M840.455 580.188c3.058 2.424 5.734 5.255 8.817 7.655 7.5 5.832 15.699 10.411 24.411 14.161 14.447 6.215 29.609 9.843 44.779 13.463 12.739 3.042 25.485 6.019 37.947 10.192 16.252 5.45 31.227 13.096 43.526 25.305a85.11 85.11 0 0 1 9.475 11.161c.63.878.81 1.48.23 2.57-8.76 16.488-17.424 33.033-26.12 49.554-.081.155-.285.252-.439.374-1.529.342-2.115-.87-2.774-1.781-8.004-11.006-18.383-19.132-30.455-25.648-14.95-8.069-30.999-12.437-47.219-16.48-1.261-.317-2.538-.536-3.799-.894-8.158-2.376-16.455-4.133-24.679-6.191-16-4.01-31.284-9.842-45.397-18.489-6.101-3.741-11.941-8.036-16.269-13.909a2.73 2.73 0 0 1 .236-1.611c8.142-15.642 16.423-31.203 24.647-46.788.667-1.237 1.179-2.725 3.083-2.644z" fill="#009EFF"/><path d="M899.206 669.083c7.142 1.358 14.153 3.302 21.141 5.368 4.791 1.416 9.549 2.937 14.243 4.71 10.273 3.888 19.953 8.818 28.827 15.366 6.508 4.807 12.104 10.42 17.025 16.732.879 1.131 1.172 2.7 2.66 3.384-9.012 17.082-18.025 34.172-26.973 51.132-1.252-.033-1.318-.895-1.692-1.408-4.62-6.263-10.037-11.753-16.146-16.691-6.288-5.084-13.227-9.021-20.442-12.551-7.475-3.652-15.325-6.264-23.256-8.704-10.216-3.14-20.595-5.499-30.991-7.833-.382-.081-.732-.317-1.098-.488-7.134-2.205-14.471-3.604-21.605-5.792-5.808-1.781-11.624-3.489-17.285-5.848-4.807-2.009-9.623-3.913-14.259-6.337-3.311-1.724-6.321-3.88-9.518-5.759-1.358-.797-1.757-1.936-1.724-3.457.106-6.068-2.416-8.297-8.655-7.841-2.733.195-3.514-.781-2.489-3.23.626-1.505 1.472-2.904 2.237-4.343 6.792-12.885 13.592-25.762 20.384-38.646.448-.846.863-1.717 1.367-2.53 1.399-2.27 2.432-2.4 4.344-.382 3.367 3.554 7.142 6.645 11.258 9.289 10.68 6.873 22.084 12.087 34.188 16.024 11.721 3.815 23.719 6.296 35.563 9.509.903.261 1.895.781 2.896.326z" fill="#EDFF00"/><path d="M738.841 795.142a3.968 3.968 0 0 1-1.976-5.254l97.147-214.257a3.969 3.969 0 0 1 5.255-1.976 3.967 3.967 0 0 1 1.976 5.254l-97.147 214.257a3.973 3.973 0 0 1-5.255 1.976z" fill="#343B3F"/><path d="M840.758 575.861a5.776 5.776 0 1 0-.002-11.552 5.776 5.776 0 0 0 .002 11.552z" fill="#343B3F"/><path d="M464.065 657.689c10.14 3.411 47.909 14.823 85.132-2.773 11.383-5.379 19.986-12.178 26.244-18.279" stroke="#DBAF26" stroke-width="6.814" stroke-miterlimit="10" stroke-linecap="round"/><path d="M862.12 343.258c-10.201-14.349-25.542-17.212-28.535-17.716H158.051c-3.002.496-18.335 3.367-28.535 17.716-8.647 12.161-8.143 24.907-7.874 28.535 4.262 31.821 8.533 63.634 12.795 95.456 2.863 10.745 10.225 32.594 29.519 53.141 18.888 20.116 39.695 28.86 50.188 32.472 23.826 7.491 59.568 15.699 103.33 14.763a321.307 321.307 0 0 0 89.55-14.763c10.062-3.588 17.928-7.72 23.435-10.998 8.769-5.222 15.349-9.232 20.628-17.228 2.815-4.255 4.336-8.257 5.19-10.998 3.172-11.64 6.353-23.28 9.525-34.92l16.008-58.705c.773-1.863 2.742-5.873 7.11-8.883a19.588 19.588 0 0 1 6.45-2.887c.147-.009.293-.025.448-.033.146.008.292.024.439.033a19.518 19.518 0 0 1 6.45 2.887c4.368 3.01 6.337 7.028 7.11 8.883l16.008 58.705c3.172 11.64 6.345 23.28 9.525 34.92a43.264 43.264 0 0 0 5.19 10.998c5.279 7.996 11.86 12.006 20.628 17.228 5.507 3.278 13.373 7.41 23.435 10.998 21.824 6.865 52.482 13.966 89.55 14.763 43.754.936 79.496-7.272 103.33-14.763 10.493-3.62 31.3-12.356 50.188-32.472 19.295-20.547 26.656-42.396 29.519-53.141 4.263-31.822 8.533-63.635 12.795-95.456.277-3.636.781-16.374-7.865-28.535z" fill="#1D2327"/><path d="M288.686 566.942c40.558-80.464 81.115-160.936 121.673-241.4H324.42L206.945 550.12a297.225 297.225 0 0 0 31.578 9.363 296.836 296.836 0 0 0 50.163 7.459zM814.416 325.542h-89.932c-40.672 77.462-81.343 154.917-122.014 232.379a321.025 321.025 0 0 0 38.223 7.223 321.34 321.34 0 0 0 50.383 2.392c41.119-80.66 82.23-161.327 123.34-241.994z" fill="#2B3035"/><path d="M660.312 767.976c-.024 26.037-3.009 50.879-13.942 74.209-3.701 7.898-4.465 8.524-13.592 7.76-19.286-1.611-37.409-7.614-55.077-15.211-17.773-7.647-34.571-17.099-50.701-27.755-2.554-1.691-4.49-2.627-7.199.033-2.741 2.692-6.588 3.449-10.379 2.945-8.004-1.074-16.016-.708-24.037-.602-3.327.048-6.662-.179-9.167-2.449-2.636-2.383-4.539-1.244-6.89.309-19.237 12.722-39.41 23.695-60.95 32.025-15.04 5.816-30.487 9.94-46.593 11.404-6.532.594-8.378-.35-11.331-6.255-8.289-16.553-12.169-34.294-13.836-52.564-3.051-33.44 1.057-66.278 8.858-98.75 1.92-7.996 3.994-9.191 12.559-8.264 24.216 2.627 46.943 10.257 68.906 20.433 14.723 6.825 28.941 14.585 42.501 23.525 2.318 1.529 4.083 2.171 6.483.048 3.254-2.871 7.362-2.912 11.429-2.318a73.79 73.79 0 0 0 21.206.008c3.896-.561 7.874-.602 11.062 2.034 2.367 1.96 4.084 1.651 6.5.081 21.84-14.153 44.811-26.07 69.474-34.538 14.788-5.076 29.845-8.907 45.552-9.729 5.702-.292 7.508.814 8.891 6.37 6.361 25.557 10.176 51.465 10.273 77.251zm-190.203-20.491c-.325-8.174-24.915-19.318-40.183-18.57 14.454 4.401 27.778 10.111 40.183 18.57zm93.487-18.684c-9.956.195-19.148 3.132-27.811 7.817-2.822 1.529-5.45 3.441-8.077 5.295-1.131.798-2.449 2.075-1.562 3.441 1.196 1.83 2.383-.122 3.408-.675 3.913-2.123 7.679-4.506 11.616-6.572 7.183-3.766 14.861-6.378 22.426-9.306zm-132.23 76.088c13.185-.757 25.362-4.531 36.319-12.022 1.822-1.245 3.327-2.701 2.383-5.662-12.12 8.029-25.134 13.47-38.702 17.684zm131.197-.862c-11.762-4.1-23.256-8.745-33.822-15.431-.838-.529-1.92-1.586-2.693-.114-.658 1.269.163 2.392 1.221 3.156 10.55 7.598 22.32 11.705 35.294 12.389z" fill="#252B2D"/><path d="M792.986 706.244c-16.781-15.137-46.618-3.392-46.423 8.232.22 13.072 38.589 37.849 51.507 29.105 8.508-5.767 6.767-26.64-5.084-37.337z" fill="#F8ED7A"/><path d="M42.507 748.46c-.195.008-.431.081-.586.008-2.343-1.098-2.4-3.725-3.758-5.49-.691-.903-.276-1.774-.008-2.677-.757-1.195.203-2.025.838-2.847 7.947-10.428 17.887-18.692 29.364-25.126 13.47-7.557 27.999-12.348 42.827-16.236 16.147-4.23 32.472-7.687 48.489-12.478 11.811-3.53 23.223-8.045 33.92-14.251 6.385-3.71 12.225-8.175 17.513-13.316 1.195-1.163 2.318-2.619 4.343-2.197 2.473 2.481 4.36 5.247 4.189 8.989-.805 1.773-2.375 2.928-3.774 4.213-11.591 10.673-25.184 17.904-39.923 23.248-14.528 5.263-29.495 8.744-44.429 12.356-15.537 3.758-31.049 7.646-45.812 14.04-15.488 6.702-29.12 15.976-39.777 29.145-.91 1.114-1.578 2.635-3.416 2.619z" fill="#FCFCFD"/><path d="M50.359 764.596c-.537.033-.96-.146-1.188-.618-1.196-2.473-3.075-4.645-3.278-7.557-.276-1.651.887-2.766 1.773-3.929 7.337-9.615 16.513-17.196 26.998-23.321 15.52-9.053 32.407-14.308 49.619-18.66 17.35-4.392 34.863-8.118 51.88-13.909 16.529-5.629 31.626-13.617 44.251-25.851.837-.813 1.651-1.846 3.083-1.497 2.521 2.221 3.766 5.141 4.538 8.314-.122 1.366-1.033 2.334-1.96 3.237-5.279 5.133-11.079 9.59-17.391 13.462-14.886 9.127-31.195 14.414-47.854 18.831-14.674 3.888-29.527 6.987-44.136 11.193-10.851 3.131-21.54 6.865-31.529 12.104-11.388 5.978-21.637 13.633-29.836 23.662-1.4 1.716-2.408 3.986-4.97 4.539zM130.732 674.453c9.224-1.936 18.278-4.588 27.25-7.516 7.085-2.31 14.007-5.084 20.661-8.468 10.306-5.238 19.815-11.567 27.648-20.124.643-.35 1.245-.122 1.57.325 1.839 2.497 3.848 4.946 3.652 8.354-.756 1.692-2.228 2.798-3.554 4.018-11.901 10.982-25.851 18.441-41.029 23.834-15.716 5.58-31.895 9.289-48.017 13.194-15.17 3.676-30.251 7.735-44.535 14.251-14.34 6.54-26.827 15.593-36.661 27.941-1.033 1.301-1.863 2.912-3.823 3.14-.505.065-1.326 0-1.261-.358.334-1.863-.992-2.953-1.887-4.14-1.033-1.375-1.098-2.782-.822-4.352-.423-1.302.39-2.278 1.123-3.197 6.906-8.728 15.138-16 24.647-21.979 18.188-11.428 38.49-16.813 58.916-21.897 3.612-.903 7.24-1.708 10.851-2.611 1.716-.423 3.482-1.139 5.271-.415z" fill="#FCFDFD"/><path d="M50.352 764.592c4.644-5.759 9.468-11.339 15.194-16.155 9.265-7.792 19.66-13.616 30.837-18.155 16.204-6.581 33.131-10.461 49.994-14.561 12.876-3.123 25.728-6.336 38.206-10.973 15.854-5.881 30.398-13.861 42.266-26.103.203-.211.463-.382.699-.569 3.051 1.651 4.328 4.254 4.076 7.671-3.994 3.652-7.923 7.353-12.308 10.59-7.849 5.784-16.39 10.274-25.354 13.983-13.82 5.727-28.242 9.346-42.689 12.844-11.802 2.855-23.622 5.637-35.254 9.216-12.844 3.954-25.24 8.972-36.58 16.334-9.028 5.856-16.821 13.047-23.377 21.499-.488.634-.976 1.26-1.489 1.879-.114.138-.333.187-.838.447-1.057-2.709-3.359-4.775-3.383-7.947zM33.879 733.403c10.534-14.081 24.012-24.598 40.118-31.919 10.672-4.856 21.767-8.468 33.074-11.372 12.649-3.245 25.354-6.271 37.987-9.566 14.129-3.685 27.998-8.134 40.98-15.121 8.68-4.669 16.537-10.38 23.565-17.221.431-.414.757-.935 1.367-1.155 2.725 1.009 4.279 3.636 4.043 6.858-2.701 2.391-5.361 4.831-8.118 7.166-8.135 6.906-17.343 12.03-27.104 16.276-15.227 6.622-31.227 10.51-47.227 14.406-12.974 3.165-25.981 6.174-38.67 10.477-16.26 5.515-31.496 12.909-44.17 24.785-4.31 4.043-8.443 8.273-11.59 13.275-.35.106-.871.472-1.05.131-1.188-2.27-3.026-4.263-3.205-7.02z" fill="#FF2966"/><path d="M223.103 669.497c-6.223 6.166-12.998 11.624-20.563 16.163-5.906 3.547-12.08 6.475-18.449 9.021-16.61 6.629-33.96 10.485-51.213 14.682-11.315 2.758-22.605 5.621-33.603 9.55-14.723 5.255-28.519 12.193-40.232 22.76-4.93 4.449-9.46 9.256-13.153 14.747-2.147-1.594-2.587-4.23-3.815-6.377-.195-.342.26-1.041.423-1.578 4.254-5.174 8.606-10.25 13.706-14.699 8.98-7.825 19.14-13.69 30.073-18.343 14.902-6.353 30.511-10.159 46.129-13.958 13.169-3.205 26.371-6.28 39.248-10.672 16.073-5.483 31.097-12.836 43.665-24.541 1.244-1.164 2.464-2.351 3.701-3.531 2.936.968 4.457 3.474 4.083 6.776z" fill="#FF2966"/><path d="M122.04 658.046c1.911 2.652 3.229 5.621 4.595 8.565-.837 1.554-2.464 1.627-3.88 1.985-9.85 2.457-19.741 4.775-29.519 7.541-12.917 3.652-25.533 8.126-37.23 14.869-9.86 5.686-18.57 12.787-25.835 21.531-1.448 1.741-2.619 3.832-5.035 4.588-.285-.073-.764-.073-.813-.219-.895-2.945-3.376-5.328-2.97-8.729-.365-2.017 1.148-3.286 2.238-4.628 6.442-7.914 14.178-14.438 22.735-20.083 14.194-9.355 30.097-14.406 46.194-18.929 8.517-2.399 17.147-4.352 25.745-6.434 1.253-.309 2.538-.781 3.775-.057z" fill="#FCFCFD"/><path d="M113.697 642.193c2.034 2.612 3.222 5.686 4.718 8.59-1.138 1.92-3.213 1.887-5.01 2.335-14.626 3.628-29.3 7.028-43.567 12.104-13.007 4.628-25.143 10.786-35.856 19.595-4.913 4.043-9.306 8.565-13.3 13.47-.984 1.212-1.79 2.709-3.628 2.921-1.48-.871-1.7-2.62-2.676-3.864-.952-1.22-1.399-2.815-2.066-4.238-.13-1.383.659-2.432 1.472-3.449 7.63-9.558 16.684-17.456 27.356-23.752 14.414-8.5 29.966-13.674 45.958-17.814 7.687-1.993 15.374-3.953 23.102-5.751 1.171-.277 2.334-.781 3.497-.147z" fill="#FCFDFD"/><path d="M105.142 625.764c1.952 2.685 3.27 5.719 4.709 8.688-.984 1.57-2.708 1.618-4.221 2.001-14.707 3.717-29.495 7.093-43.868 12.144-17.871 6.28-33.871 15.431-46.626 29.625-1.277 1.416-2.375 2.969-3.595 4.425-.822.984-1.578 2.115-3.075 2.188-2.147-1.594-2.855-4.042-3.693-6.377-.26-.732-1.163-1.529-.252-2.473-.423-1.301.39-2.277 1.122-3.197 7.037-8.858 15.415-16.211 25.119-22.255 18.83-11.721 39.85-17.033 60.918-22.239 3.408-.846 6.808-1.773 10.249-2.456 1.065-.204 2.147-.578 3.213-.074z" fill="#FCFCFD"/><path d="M8.474 684.843c10.143-13.535 23.028-23.841 38.418-31.13 11.054-5.23 22.605-9.004 34.375-12.071 9.51-2.473 19.059-4.799 28.592-7.191 1.35 2.546 2.985 4.946 3.839 7.736-3.758 1.481-7.727 2.082-11.607 3.05-11.673 2.904-23.362 5.727-34.758 9.713-15.406 5.401-29.82 12.551-42.013 23.662-4.84 4.409-9.062 9.322-12.99 14.487-1.408-2.7-3.376-5.124-3.856-8.256zM25.122 717.127c4.588-5.653 9.314-11.176 14.902-15.959 8.175-7.004 17.31-12.454 27.144-16.83 15.471-6.882 31.772-10.859 48.065-14.87 3.799-.935 7.598-1.903 11.397-2.855 1.553 2.522 2.895 5.149 4.107 7.842-8.175 2.033-16.358 4.002-24.508 6.109-13.227 3.424-26.282 7.385-38.687 13.332-14.885 7.133-27.559 16.927-37.377 30.121-.114.154-.17.358-.252.537-.455.17-1.009.471-1.277-.082-1.18-2.44-2.904-4.628-3.514-7.345z" fill="#FF2966"/><path d="M105.147 625.763c-3.766 1.481-7.744 2.099-11.632 3.051-11.607 2.839-23.207 5.718-34.538 9.631-16.951 5.848-32.602 13.926-45.38 26.786-3.32 3.343-6.54 6.784-9.07 10.762-.61.284-1.115.333-1.465-.35-.91-1.798-1.805-3.612-2.806-5.361-.626-1.098.024-1.806.626-2.619a90.765 90.765 0 0 1 15.52-16.277c10.575-8.638 22.54-14.706 35.311-19.384 16.114-5.897 32.781-9.533 49.351-13.584.187-.049.398-.016.594-.024.951 2.562 2.741 4.718 3.489 7.369zM17.068 701.2c5.637-7.134 11.779-13.771 19.116-19.343 8.655-6.565 18.115-11.584 28.177-15.586 15.951-6.344 32.586-10.078 49.131-14.153 1.651-.407 3.286-.895 4.921-1.342 1.237 2.407 2.766 4.661 3.62 7.263-6.621 1.668-13.243 3.344-19.864 4.995-11.705 2.904-23.313 6.158-34.57 10.656-18.059 7.215-33.693 17.651-45.471 33.228-.301.391-.52.838-.781 1.253-.358.114-.887.431-1.066.106-1.212-2.286-3.017-4.311-3.213-7.077z" fill="#FF2966"/><path d="M101.657 618.388c5.417-1.488 10.835-2.985 16.26-4.473 11.185-3.083 22.093-6.947 32.44-12.275 9.013-4.637 17.301-10.322 24.549-17.415.504-.489 1.025-.96 1.546-1.44 1.48-.383 2.489.236 3.27 1.35.219.317.447.626.626.968 8.63 16.374 17.22 32.765 25.712 49.212.578 1.115.96 2.31.83 3.612-.252 1.781-1.529 2.961-2.774 4.124-5.311 4.937-11.127 9.192-17.366 12.99-16.44 10.022-34.604 15.081-52.93 19.734-1.074.269-2.164.48-3.229.033-2.465-2.091-3.368-5.109-4.726-7.858-1.709-2.79-3.238-5.67-4.531-8.663a50.93 50.93 0 0 1-3.766-7.207 69.277 69.277 0 0 1-4.531-8.655 56.825 56.825 0 0 1-4.027-7.703 69.253 69.253 0 0 1-4.555-8.704c-1.196-2.448-3.497-4.465-2.798-7.63z" fill="url(#a)"/><path d="M166.202 624.799c-.341-1.399-.675-2.595-2.595-2.294 1.627-1.57 1.627-1.57 1.611-3.441 1.139.228 2.156 1.847 3.563-.146-.513 1.675-.749 2.952.74 4.034-1.757-.415-2.701.301-3.319 1.847z" fill="#CFD8EC"/><path d="M114.08 620.523c-.846 1.481-.862 2.554.415 3.531-1.48-.188-2.749-.488-3.644 1.22-.203-1.765-1.033-2.709-3.27-2.579 2.326-1.09 2.326-1.09 2.611-2.855 1.147.504 1.952 2.237 3.888.683z" fill="#CFDBEC"/><path d="M179.711 601.185c.39.26.813.797 1.163.74.976-.163 1.961-.699 1.473 1.041-.139.505.374.846.732 1.155.382.342.252.895-.09.846-1.789-.268-1.602 1.367-2.44 2.351-.464-1.122-.423-2.692-2.766-1.96 1.245-1.497 2.538-2.441 1.123-4.141.268-.008.537-.016.805-.032z" fill="#CCDBEB"/><path d="M136.868 643.891c-.505-1.383-.724-2.701-2.652-2.253.293-1.245 2.139-.944 1.667-2.327-.122-.358.44-.87.675-.48.798 1.326 2.099.48 3.165.61-.456 1.587-.456 1.587.472 3.295-1.18.089-2.685-.781-3.327 1.155z" fill="#D3DCED"/><path d="M120.162 645.028c.96-.789 3.116-.561 1.293-2.928 1.904.699 2.693 2.489 4.613.96-.814 1.513-.733 2.562.341 3.229-.228.683-.594.407-.724.285-1.236-1.131-2.505 1.334-2.855.528-.537-1.228-1.415-1.626-2.668-2.074z" fill="#D3E1EF"/><path d="M149.825 633.782c.651 1.489 1.692 1.644 3.425.44-.667 1.635-.968 2.814.439 3.684-1.358.163-2.782-.341-3.416 2.156-.431-2.009-.748-3.286-2.652-2.863.342-1.098 1.277-.936 1.619-1.464.35-.521-.228-1.155.585-1.953z" fill="#D8E3F3"/><path d="M140.343 635.74c.032-1.854-1.302-2.163-2.424-2.562.163-.895 1.049-.447 1.391-.984.358-.562.081-1.139.333-1.83 1.099.691 2.172 1.537 3.807.715-.813 1.318-1.065 2.408.57 3.287-1.456-.009-2.864-.383-3.677 1.374z" fill="#D1DBEE"/><path d="M175.662 615.054c.927-1.285 1.627-2.261 1.432-3.563 1.033.016 2.139 1.399 3.156-.732-.301 1.733-.667 3.067.895 4.108-1.644-.041-2.636.488-2.701 2.367-.984-.968-.691-2.945-2.782-2.18z" fill="#D0D9EA"/><path d="M163.195 637.033c-1.408 1.635-.92 2.627.219 3.839-1.732-.309-2.855-.065-3.555 1.473 0-1.806-1.057-2.433-2.643-2.717 1.407-.554 2.098-1.359 1.797-2.937 1.099 1.237 2.319 1.277 4.182.342z" fill="#D4E2F0"/><path d="M147.894 660.826c.902 1.635 2.236 1.245 3.546.903-.455 1.725-.455 1.725.366 3.237-.268.611-.781.188-.903.066-1.163-1.196-2.09 1.984-2.643.463-.472-1.293-1.546-1.228-2.489-2.041 1.643-.204 2.09-1.172 2.123-2.628z" fill="#D7E2F3"/><path d="M124.617 621.361c.138-2.009-1.359-2.155-3.319-2.936 2.359-.155 3.026-.92 2.253-2.774 1.48 1.09 2.514 2.147 4.515.602-.798 1.708-1.408 2.904.203 3.839-1.497-.146-2.798-.496-3.652 1.269z" fill="#D6E3F1"/><path d="M190.073 639.551c-.236-1.497-.659-2.473-2.628-1.904.83-1.391 2.546-2.155 1.326-3.937 1.277.448 2.278 1.538 3.343-.61.415 1.684-1.098 3.417 1.229 4.01-1.57.391-2.961.667-3.27 2.441z" fill="#CEDEEB"/><path d="M186.323 622.555c.138.334.236.456.211.496-.935 1.286.179 2.189.505 3.238-1.099.309-2.628.065-2.367 2.31-.838-1.253-1.042-2.66-2.929-2.286 1.35-1.057 2.131-2.147 1.432-3.872 1.122 1.391 2.164 1.131 3.148.114z" fill="#D9E5F2"/><path d="M177.529 641.357c.813 1.277 1.928 1.26 3.327.39-.781 1.513-.537 2.611.675 3.652-1.635-.268-2.619.301-3.026 1.668-.561-.155-.732-.521-.61-.895.48-1.496-2.53-.895-1.505-1.822 1.066-.984.472-1.985 1.139-2.993z" fill="#D7DDF1"/><path d="M165.703 628.797c-.39 1.285-.569 2.294.862 3.335-1.619.212-3.091.09-3.278 2.066-.325-1.708-.952-2.757-2.814-2.741 1.456-.667 2.009-1.651 1.627-3.603 1.236 1.382 2.204 1.895 3.603.943z" fill="#D3DFEF"/><path d="M152.44 625.036c1.464.96 2.513 1.749 3.953.423-.049 1.415-1.31 2.765.651 3.603-1.416.309-3.067-.26-3.368 2.058-.333-1.724-.87-2.741-2.676-2.782 1.326-.74 2.229-1.496 1.44-3.302z" fill="#CFDBED"/><path d="M134.085 631.232c-1.481-.236-2.766-.521-3.571 1.285-.244-1.594-.993-2.554-2.717-2.871 1.448-.423 2.383-1.033 1.643-2.725 1.489.74 2.481 2.05 4.27.781-1.244 1.521-.699 2.53.375 3.53z" fill="#D4DFF0"/><path d="M130.138 638.648c-1.48-.431-2.594-.187-3.587 1.253.269-2.107-1.22-2.326-3.172-2.936 2.082-.261 2.969-.968 2.4-2.652 1.179.642 1.813 1.814 3.318 1.13.643-.292.781.358.383.846-.854 1.066.211 1.497.658 2.359z" fill="#D4E3F2"/><path d="M144.082 627.87c-.292-1.635-1.415-2.123-2.798-2.644 1.432-.415 2.392-1 1.643-2.465.366 0 .57-.048.724.009.667.235 1.009 1.041 2.05.658 1.635-.593.952.423.651 1.115-.439 1 .984 1.065.903 2.139-1.025.033-2.538-.895-3.173 1.188z" fill="#D0E0EE"/><path d="M172.68 636.675c-.765-1.635-.61-3.449-3.059-2.749 1.432-1.066 2.693-1.7 1.749-3.579 1.293 1.179 2.432 1.122 3.742.504-1.009 1.334-.041 2.375.089 3.498-1.35-.179-2.18.455-2.521 2.326z" fill="#D7E3F3"/><path d="M146.088 653.675c-1.619-.277-2.75-.358-3.49 1.35-.171-1.7-.976-2.578-2.774-2.676 1.351-.578 2.351-1.196 1.847-2.888 1.195 1.074 2.277 1.839 3.937.627-.301 1.399-1.383 2.595.48 3.587z" fill="#DAE2F3"/><path d="M143.662 644.233c2.042-.008 1.741-1.521 2.424-2.074.651-.529 1.269 1.415 2.457.586.227-.163.545-.188 1.041-.35-.179 1.204-.984 2.456.569 3.286-1.09.683-2.456-.667-3.001.952-.139.414-.797.309-.765-.171.073-1.546-1.448-1.277-2.725-2.229z" fill="#D6E2F3"/><path d="M155.719 650.699c.162-1.961-.732-2.603-2.367-2.725 1.163-.684 2.277-1.286 1.854-2.945 1.098.87 2.123 1.432 3.693.659-.846 1.383-.724 2.448.635 3.099-.846.789-1.465.016-2.099.236-.651.22-.74.895-1.716 1.676z" fill="#D5E2F1"/><path d="M180.083 632.381c1.179.814 2.131 1.643 3.384-.024-.187 1.513-.692 2.863.943 3.798-1.667-.089-2.651.505-3.115 2.644-.423-1.871-.781-3.156-2.741-2.912 1.163-.992 2.334-1.814 1.529-3.506z" fill="#D7E0F2"/><path d="M142.606 661.029c-1.44.447-2.546-.667-3.367.789-.212.374-.732.203-.789-.293-.139-1.188-1.139-1.416-2.058-1.635.057-.911.854-.773 1.269-1.082.618-.456-.171-1.114.61-1.668.854 1.123 2.139 1.212 4.042.651-1.366 1.44-1.602 2.457.293 3.238z" fill="#D4DFEF"/><path d="M154.074 609.857c-1.22-.211-2.204.009-2.717 1.676-.724-1.179-.87-2.66-2.709-2.489 1.099-.838 2.189-1.554 1.172-3.359 1.537.602 2.53 1.862 3.693.463.528.83-.236 1.391-.22 2.034.016.642.96.667.781 1.675z" fill="#D9E4F4"/><path d="M125.028 627.909c-1.969-.561-3.295-.805-4.198 1-.024-1.586-.683-2.497-2.749-2.651 1.399-.879 2.798-1.318 1.96-2.945 1.196 1.155 2.433 1.692 4.19 1.049-1.481 1.399-.602 2.343.797 3.547z" fill="#DCE8F5"/><path d="M137.846 665.688c-1.171 1.383-.724 2.31.756 3.368-1.716.065-3.253-1.204-3.806 1.318-.383-1.879-1.391-2.62-2.904-3.002 1.814-.846 1.814-.846 2.041-2.684 1.09.838 2.058 2.025 3.913 1z" fill="#D8E2F3"/><path d="M161.07 655.836c1.171 1.595 2.205 2.14 3.953.838-.618 1.586-1.382 2.847 1.139 3.62-1.944.35-3.563-.569-4.034 1.554-.423-1.481-.985-2.603-2.831-2.498 1.505-.618 1.96-1.659 1.773-3.514z" fill="#DBE6F3"/><path d="M175.394 604.001c-1.855-.374-2.449.675-2.978 2.343-.585-1.432-.667-2.823-2.578-2.481 1.342-1 1.757-2.115 1.253-3.408.333-.09.634-.212.65-.171.635 1.106 2.571.301 2.514.602-.212 1.196.341 1.993 1.139 3.115z" fill="#D5E0F1"/><path d="M119.848 631.901c-.724 1.652-.724 1.652.317 3.278-.317-.032-.74.057-.878-.097-1.237-1.383-2.384 1.651-2.782.472-.431-1.269-1.285-1.497-2.343-2.083.919-.716 2.733-.903 1.757-2.611.626.407 1.188.984 1.887 1.18.594.162 1.334-.082 2.042-.139z" fill="#DCE7F6"/><path d="M163.054 650.872c1.431-.74 2.009-1.521 1.513-3.221 1.366.74 2.334 1.911 3.896.008-.228 1.822-1.399 3.107.48 4.067-1.7-.309-2.571.293-3.311 2.058-.406-1.806-.488-3.278-2.578-2.912z" fill="#DBE5F4"/><path d="M149.743 655.531c1.513-.366 2.286-1.074 1.814-2.725 1.196.927 2.237 1.83 3.856.74-.692 1.269-.919 2.343.211 3.01.041.488-.106.626-.317.472-1.285-.968-2.928.992-2.961.667-.195-1.53-1.375-1.66-2.603-2.164z" fill="#DCE9F7"/><path d="M136.74 650.175c-1.529.26-3.05-1.196-3.628 1.44-.415-1.863-1.302-2.693-2.855-3.156 1.627-.212 2.383-.854 1.684-2.498 1.521.44 2.359 2.27 4.197.635-.781 1.505-.781 2.595.602 3.579z" fill="#D3DFEF"/><path d="M126.014 656.087c1.724-.943 1.724-.943 1.895-2.619 1.236.537 2.245 1.936 3.978.757-.789 1.309-.895 2.407.317 3.196-.228.22-.317.317-.334.309-1.269-.797-2.228.301-3.31.643-.106-1.48-1.058-2.123-2.546-2.286z" fill="#D7E4F3"/><path d="M134.584 624.639c-.017-1.773-1.107-2.164-2.611-2.489 1.26-.757 2.367-1.342 1.513-3.107 1.488.935 2.448 2.261 4.189.732-.724 1.497-1.066 2.635.512 3.538-1.407.114-2.855-.651-3.603 1.326z" fill="#DDEAF8"/><path d="M168.01 639.029c1.147 1.326 2.131 1.773 3.799.415-.773 1.749-.87 2.896.431 3.872-1.554-.195-2.676.089-3.254 1.716-.276-1.472-.862-2.465-2.594-2.44 1.358-.757 1.846-1.79 1.618-3.563z" fill="#DEEBF6"/><path d="M172.318 613.64c-1.602-.041-2.643.212-2.944 1.912-.472-1.334-1.302-2.123-2.807-2.367 1.993-.611 1.652-2.058 1.692-3.531.985 1.505 2.099 1.196 3.368.139-.187 1.521-1.212 2.871.691 3.847z" fill="#D6E2F1"/><path d="M173.788 650.316c1.277 1.31 2.197 2.05 3.482.651.26 1.318-.805 2.603.732 3.506-1.383.236-2.79.179-2.985 2.147-.261-1.806-.944-2.782-2.815-2.692 1.432-.692 2.058-1.651 1.586-3.612z" fill="#D6E4F4"/><path d="M174.844 596.224c-.163-1.676-.895-2.327-2.749-2.042.976-1.106 2.163-1.757 1.602-3.099-.138-.325.057-1.171.724-.529.952.903 1.578-.447 2.383-.293-.447 1.245.7 2.807.253 3.336-.676.797-2.075 1.033-2.213 2.627z" fill="#D7E5F4"/><path d="M163.566 605.163c-.691-1.675-.618-3.131-3.026-2.407 1.399-1.342 2.4-2.205 1.847-3.791 1.146.724 2.212 1.017 3.497.22-1.114 1.431.147 2.367.277 3.473-1.375-.098-2.156.602-2.595 2.505z" fill="#D3E0F1"/><path d="M172.838 624.728c1.513-.716 1.92-1.92 1.399-4.027 1.22 1.766 2.302 1.684 3.815.537-.748 1.66-.976 2.847.374 3.547-.683.821-1.635.008-2.033.765-.773 1.472-1.196 1.878-1.57-.139-.114-.651-1.277-.187-1.985-.683z" fill="#DEE6F6"/><path d="M190.054 627.6c1.586-1.187 1.716-2.464 1.106-4.27 1.179.943 2.082 1.57 3.164.244.448.895-.35 1.667-.016 2.074.935 1.139 1.171 1.847-.724 2.188-.285.049-.472.805-.805 1.448-.773-.765-1.05-2.286-2.725-1.684z" fill="#D6E2F3"/><path d="M186.093 643.816c1.114 1.115 2.221.879 3.644.025-.626 1.504-1.049 2.659.919 3.465-1.651.472-3.327.309-3.099 2.944-.992-2.375-.992-2.375-2.652-3.026.57-1 2.107-1.74 1.188-3.408z" fill="#D9E6F2"/><path d="M135.729 614.34c.822-.837 2.66-1.025 1.261-2.993 1.53.765 2.498 1.741 4.507.244-1.042 1.814-1.351 2.953-.008 3.555-.074.642-.497.512-.627.398-1.293-1.122-2.18 1.562-2.774.659-.61-.943-1.244-1.505-2.359-1.863z" fill="#DBE8F6"/><path d="M144.959 617.188c1.545-.667 2.473-1.374 1.594-3.294 1.505 1.033 2.53 1.887 4.1.895-.846 1.407-.586 2.448.512 3.188-.219.22-.309.334-.333.326-1.261-.496-2.115.325-3.018.984-.317-1.212-1.22-1.814-2.855-2.099z" fill="#D1E0EF"/><path d="M157.892 611.501c1.545-1.562 1.545-1.562 1.586-3.424 1.13.268 2.139 1.57 3.538.179-.569 1.415-.813 2.562.659 3.505-1.545-.13-2.619.245-3.034 1.904-.757-1.163-.634-2.823-2.749-2.164z" fill="#DDE5F5"/><path d="M189.461 616.323c-.195.025-.39.074-.585.082-.814.032-1.131.561-1.57 1.163-.749 1.033-.838-.081-1.009-.439-.366-.773-1.367-.179-1.757-.806 1.212-1.504 1.212-1.504 1.236-3.749.928.789 1.863 1.496 2.913-.163-.131 1.472-.57 2.855.772 3.912z" fill="#DAE7F4"/><path d="M196.013 639.053c1.195-1.269 1.984-2.285 1.301-3.839 1.155.748 2.123.537 3.229-.334-.122 1.424-.829 2.799 1.278 3.49-1.302.732-3.108.211-2.847 2.343-.968-.952-1.278-2.27-2.961-1.66z" fill="#D7E3F0"/><path d="M154.283 620.268c1.383-.959 2.148-1.781 1.782-3.327 1.122.985 2.22 1.221 3.928.114-.943 1.627-1.399 2.742.912 3.71-1.961.235-3.75-.619-3.449 1.887-1.261-1.009-.667-3.238-3.173-2.384z" fill="#E3ECF9"/><path d="M284.234 790.417a3.984 3.984 0 0 1-5.36-1.74L173.543 582.262a3.986 3.986 0 0 1 7.101-3.62l105.331 206.415a3.984 3.984 0 0 1-1.741 5.36z" fill="#343B3F"/><path d="M241.339 695.828c-28.331-.601-46.853 44.576-37.084 58.282 10.982 15.407 67.661 5.019 72.656-18.92 3.294-15.789-15.553-38.939-35.572-39.362z" fill="#F8ED7A"/><defs><linearGradient id="a" x1="103.124" y1="613.406" x2="205.066" y2="644.03" gradientUnits="userSpaceOnUse"><stop stop-color="#06102C"/><stop offset=".359" stop-color="#06122E"/><stop offset="1" stop-color="#0B1528"/></linearGradient></defs></svg>