<svg viewBox="0 0 87 86" fill="none" xmlns="http://www.w3.org/2000/svg">
<path d="M72.3848 34.2611C71.8454 33.5146 71.0234 33.0255 70.1244 32.8711H16.825C15.926 33.0255 15.104 33.5404 14.5646 34.2611C14.1023 34.9304 13.8968 35.7283 13.9481 36.5263C14.2821 39.0489 14.616 41.5715 14.9499 44.0683C15.7976 47.2345 18.1607 49.7828 21.2431 50.8382C26.2006 52.4084 31.5177 52.4084 36.4751 50.8382C37.1173 50.6065 37.7338 50.3234 38.3246 49.963C39.0181 49.5511 39.5318 49.2422 39.9428 48.5987C40.1226 48.3413 40.2511 48.0324 40.3538 47.7235L41.0987 44.9693C41.5097 43.4248 41.9464 41.8804 42.3573 40.3359C42.4858 40.0528 42.6656 39.8211 42.9224 39.6409C43.0766 39.538 43.2564 39.4607 43.4362 39.4093H43.4619H43.4875C43.6674 39.4607 43.8472 39.538 44.0013 39.6409C44.2581 39.8211 44.4379 40.0528 44.5664 40.3359L45.825 44.9693L46.5956 47.7235C46.6983 48.0324 46.8268 48.3156 47.0066 48.5987C47.4176 49.2422 47.9313 49.5511 48.6248 49.963C49.2156 50.3234 49.8321 50.6065 50.4743 50.8382C55.4317 52.4084 60.7488 52.4084 65.7063 50.8382C68.7887 49.7828 71.1518 47.2345 71.9995 44.0683L73.0013 36.5263C73.0526 35.7026 72.8471 34.9046 72.3848 34.2611Z" fill="#1D2327"/>
<path d="M68.6086 32.8452H61.5191C58.3083 38.9715 55.0975 45.0978 51.8867 51.2242C54.1728 51.8162 56.536 52.0479 58.8734 51.9964C62.1356 45.6127 65.3721 39.2289 68.6086 32.8452Z" fill="#2B3035"/>
<path d="M27.125 51.9449C30.3358 45.5869 33.521 39.2289 36.7318 32.8452H29.9505C26.8682 38.7656 23.7601 44.686 20.6777 50.6064C22.7583 51.3529 24.916 51.8162 27.125 51.9449Z" fill="#2B3035"/>
<path d="M37.1172 16.783C35.0366 13.2308 31.2864 11.0171 27.1766 10.8626C27.2793 12.3041 27.5876 13.7199 28.1013 15.0584C28.615 16.3712 29.2572 16.9117 29.4113 18.0701C29.5654 19.3829 29.0774 20.5154 28.6407 21.2362C27.8701 20.8501 27.0481 20.5669 26.2005 20.3867C24.5822 20.0264 23.8117 20.258 22.8356 20.0264C21.8595 19.7947 20.5238 19.1254 19.1881 16.886C18.4175 17.6067 17.8267 18.5077 17.5185 19.5116C17.1589 20.7729 17.3387 21.8025 17.4671 22.4717C18.0836 25.7151 20.5752 28.0318 21.4999 28.804L9.83822 30.6058C10.1721 31.6355 11.1996 34.467 14.0765 36.3975C15.2581 37.1955 16.5681 37.736 17.9551 38.0192C17.4414 38.6884 16.902 39.332 16.3112 39.9497C16.2341 40.027 14.9755 41.2625 14.2306 41.8031C13.2545 42.5238 11.4308 42.9872 7.73193 41.6486C7.96311 42.2664 9.76116 46.6938 14.0765 47.8264C15.2067 48.1096 16.3626 48.1611 17.4928 47.9551C13.7682 50.0144 11.4308 53.9527 11.4565 58.2257C14.2563 56.0635 17.9295 55.3685 21.3201 56.3724C20.832 57.3763 20.5238 58.4831 20.3954 59.59C20.1642 61.7522 20.8063 62.7818 20.2412 64.1976C19.9587 64.9183 19.3165 65.8965 17.6212 66.7459C19.7275 67.4409 21.9879 67.5181 24.1199 66.9004C25.7895 66.4113 27.305 65.5361 28.5636 64.352C28.0756 68.3676 28.7691 72.4604 30.5415 76.1156C30.8754 74.1335 31.6717 72.2544 32.8276 70.6328C33.5982 69.5774 34.5229 68.625 35.5504 67.827C36.6292 68.3418 37.6566 68.9596 38.607 69.6804C40.2767 70.9417 41.3555 71.8426 41.972 73.2069C42.3829 74.1593 42.5884 75.8582 40.9188 78.7411C45.0543 77.0422 47.8799 73.1296 48.1881 68.6507C48.9073 69.2428 49.6779 69.8091 50.4742 70.3496C53.6079 72.4089 57.1013 73.8246 60.8001 74.5196C60.4148 74.288 57.7435 72.6663 57.2297 69.4487C57.0242 68.033 57.2297 66.5915 57.8719 65.3302C58.9507 65.8192 60.1066 66.0767 61.2882 66.1281C63.6256 66.2054 64.7302 65.2529 66.1943 65.8192C66.8878 66.0767 67.7612 66.7202 68.4804 68.4448C69.9959 64.6352 68.8657 60.285 65.7062 57.6852C66.6823 58.1742 67.7868 58.4059 68.8657 58.3802C70.7151 58.3029 72.0251 57.4535 74.08 56.0377C75.5698 55.0081 76.9826 53.824 78.2669 52.537C73.104 52.9746 71.4086 52.0737 70.9206 51.0698C70.5867 50.2975 70.3298 49.4996 70.15 48.6759C70.0473 48.1611 69.9702 47.6205 69.9188 47.0799C70.9206 47.4661 71.9737 47.5948 73.0269 47.4918C73.9773 47.3888 74.4653 47.0799 75.8267 46.6938C77.2652 46.282 78.4467 46.0503 79.243 45.8959C77.4193 42.2664 73.9773 39.6923 69.9959 38.9459C73.1039 36.3975 75.4928 33.1027 76.9569 29.3703C75.2873 30.5286 73.3351 31.2236 71.3059 31.3523C69.739 31.4553 68.1721 31.1979 66.708 30.6316C66.7594 30.0395 66.8364 29.1129 66.8621 28.006C66.8878 26.3843 66.6823 25.8438 66.7851 24.9171C66.8621 24.0419 67.1961 22.8579 68.3006 21.4421L71.1518 18.7908C66.7594 16.9375 61.7505 17.5553 57.8976 20.361C57.3838 18.6879 56.8958 16.8345 56.4848 14.8267C56.0481 12.6902 55.7399 10.6825 55.5344 8.85487C55.406 10.1162 54.9179 12.6902 52.9915 15.0584C52.3236 15.8821 51.5273 16.6028 50.654 17.1949C49.8063 16.4741 48.9844 15.6762 48.2395 14.8525C46.7496 13.2308 45.9791 12.3814 45.5938 11.0686C45.414 10.4251 45.1314 9.03505 45.7736 7.10449C44.6434 7.25894 43.5388 7.61931 42.5371 8.15986C41.0216 9.00931 40.1482 10.0647 39.6345 10.6825C37.9135 12.9991 37.3484 15.393 37.1172 16.783Z" fill="#F8ED7A"/>
<path d="M41.0217 59.3585C41.8437 59.6416 44.9261 60.6455 47.9828 59.1268C48.779 58.715 49.4983 58.2002 50.1147 57.5566" stroke="#DBAF26" stroke-width="2.8988" stroke-miterlimit="10" stroke-linecap="round"/>
<path d="M72.3848 34.2611C71.8454 33.5146 71.0234 33.0255 70.1244 32.8711H16.825C15.926 33.0255 15.104 33.5404 14.5646 34.2611C14.1023 34.9304 13.8968 35.7283 13.9481 36.5263C14.2821 39.0489 14.616 41.5715 14.9499 44.0683C15.7976 47.2345 18.1607 49.7828 21.2431 50.8382C26.2006 52.4084 31.5177 52.4084 36.4751 50.8382C37.1173 50.6065 37.7338 50.3234 38.3246 49.963C39.0181 49.5511 39.5318 49.2422 39.9428 48.5987C40.1226 48.3413 40.2511 48.0324 40.3538 47.7235L41.0987 44.9693C41.5097 43.4248 41.9464 41.8804 42.3573 40.3359C42.4858 40.0528 42.6656 39.8211 42.9224 39.6409C43.0766 39.538 43.2564 39.4607 43.4362 39.4093H43.4619H43.4875C43.6674 39.4607 43.8472 39.538 44.0013 39.6409C44.2581 39.8211 44.4379 40.0528 44.5664 40.3359L45.825 44.9693L46.5956 47.7235C46.6983 48.0324 46.8268 48.3156 47.0066 48.5987C47.4176 49.2422 47.9313 49.5511 48.6248 49.963C49.2156 50.3234 49.8321 50.6065 50.4743 50.8382C55.4317 52.4084 60.7488 52.4084 65.7063 50.8382C68.7887 49.7828 71.1518 47.2345 71.9995 44.0683L73.0013 36.5263C73.0526 35.7026 72.8471 34.9046 72.3848 34.2611Z" fill="#1D2327"/>
<path d="M68.6086 32.8452H61.5191C58.3083 38.9715 55.0975 45.0978 51.8867 51.2242C54.1728 51.8162 56.536 52.0479 58.8734 51.9964C62.1356 45.6127 65.3721 39.2289 68.6086 32.8452Z" fill="#2B3035"/>
<path d="M27.125 51.9449C30.3358 45.5869 33.521 39.2289 36.7318 32.8452H29.9505C26.8682 38.7656 23.7601 44.686 20.6777 50.6064C22.7583 51.3529 24.916 51.8162 27.125 51.9449Z" fill="#2B3035"/>
</svg>
