<svg width="183" height="57" viewBox="0 0 183 57" fill="none" xmlns="http://www.w3.org/2000/svg">
  <path
    d="M176.7 57H5.7C2.565 57 0 54.435 0 51.3V5.7C0 2.565 2.565 0 5.7 0H176.7C179.835 0 182.4 2.565 182.4 5.7V51.3C182.4 54.435 179.835 57 176.7 57Z"
    fill="#1E1F23"/>
  <path
    d="M38.4748 28.2152C38.4748 23.7977 42.1798 21.6602 42.3223 21.5177C40.1848 18.5252 37.0498 18.0977 35.9098 17.9552C33.2023 17.6702 30.4948 19.5227 29.2123 19.5227C27.7873 19.5227 25.6498 17.9552 23.3698 17.9552C20.3773 17.9552 17.6698 19.6652 16.1023 22.3727C12.9673 27.7877 15.2473 35.7677 18.2398 40.1852C19.8073 42.3227 21.5173 44.7452 23.7973 44.6027C26.0773 44.4602 26.9323 43.1777 29.6398 43.1777C32.3473 43.1777 33.0598 44.6027 35.4823 44.6027C37.9048 44.6027 39.4723 42.4652 40.8973 40.3277C42.6073 37.9052 43.3198 35.4827 43.3198 35.3402C43.1773 35.1977 38.4748 33.4877 38.4748 28.2152Z"
    fill="white"/>
  <path
    d="M34.0574 15.1051C35.1974 13.5376 36.0524 11.5426 35.9099 9.40512C34.1999 9.54762 31.9199 10.5451 30.7799 12.1126C29.6399 13.3951 28.6424 15.5326 28.9274 17.5276C30.7799 17.6701 32.7749 16.5301 34.0574 15.1051Z"
    fill="white"/>
  <path
    d="M70.965 44.3177H67.83L66.12 38.9027H60.135L58.5675 44.3177H55.575L61.56 25.9352H65.265L70.965 44.3177ZM65.55 36.6227L63.9825 31.7777C63.84 31.3502 63.555 30.0677 62.985 28.3577C62.8425 29.0702 62.5575 30.3527 62.13 31.7777L60.5625 36.6227H65.55Z"
    fill="white"/>
  <path
    d="M86.2125 37.6205C86.2125 39.9005 85.6425 41.6105 84.36 43.0355C83.22 44.1755 81.9375 44.7455 80.2275 44.7455C78.5175 44.7455 77.235 44.1755 76.5225 42.893V49.8755H73.53V35.6255C73.53 34.2005 73.53 32.7755 73.3875 31.208H75.9525L76.095 33.3455C77.0925 31.778 78.5175 30.923 80.5125 30.923C82.08 30.923 83.3625 31.493 84.36 32.7755C85.6425 33.9155 86.2125 35.483 86.2125 37.6205ZM83.22 37.6205C83.22 36.338 82.935 35.198 82.365 34.4855C81.795 33.6305 80.94 33.203 79.8 33.203C79.0875 33.203 78.375 33.488 77.805 33.9155C77.235 34.343 76.8075 35.0555 76.665 35.768C76.5225 36.1955 76.5225 36.4805 76.5225 36.623V38.903C76.5225 39.9005 76.8075 40.613 77.3775 41.3255C77.9475 42.038 78.8025 42.323 79.6575 42.323C80.7975 42.323 81.6525 41.8955 82.2225 41.0405C82.935 40.1855 83.22 39.0455 83.22 37.6205Z"
    fill="white"/>
  <path
    d="M101.46 37.6205C101.46 39.9005 100.89 41.6105 99.6075 43.0355C98.4675 44.1755 97.185 44.7455 95.475 44.7455C93.765 44.7455 92.4825 44.1755 91.77 42.893V49.8755H88.7775V35.6255C88.7775 34.2005 88.7775 32.7755 88.635 31.208H91.2L91.3425 33.3455C92.34 31.778 93.765 30.923 95.76 30.923C97.3275 30.923 98.61 31.493 99.6075 32.7755C100.89 33.9155 101.46 35.483 101.46 37.6205ZM98.4675 37.6205C98.4675 36.338 98.1825 35.198 97.6125 34.4855C97.0425 33.6305 96.1875 33.203 95.0475 33.203C94.335 33.203 93.6225 33.488 93.0525 33.9155C92.4825 34.343 92.055 35.0555 91.9125 35.768C91.77 36.1955 91.77 36.4805 91.77 36.623V38.903C91.77 39.9005 92.055 40.613 92.625 41.3255C93.195 42.038 94.05 42.323 94.905 42.323C96.045 42.323 96.9 41.8955 97.47 41.0405C98.1825 40.1855 98.4675 39.0455 98.4675 37.6205Z"
    fill="white"/>
  <path
    d="M118.56 39.1874C118.56 40.7549 117.99 42.0374 116.992 43.0349C115.852 44.1749 114.142 44.6024 112.005 44.6024C110.01 44.6024 108.442 44.1749 107.302 43.4624L108.015 41.0399C109.297 41.7524 110.722 42.1799 112.29 42.1799C113.43 42.1799 114.285 41.8949 114.855 41.4674C115.425 40.8974 115.71 40.3274 115.71 39.4724C115.71 38.7599 115.425 38.0474 114.997 37.6199C114.427 37.0499 113.572 36.6224 112.432 36.1949C109.155 35.0549 107.587 33.2024 107.587 30.9224C107.587 29.3549 108.157 28.2149 109.297 27.2174C110.437 26.2199 111.862 25.7924 113.857 25.7924C115.567 25.7924 116.85 26.0774 117.99 26.6474L117.277 29.0699C116.28 28.4999 115.14 28.2149 113.715 28.2149C112.717 28.2149 111.862 28.4999 111.292 28.9274C110.865 29.3549 110.58 29.9249 110.58 30.6374C110.58 31.3499 110.865 31.9199 111.435 32.4899C111.862 32.9174 112.86 33.3449 114.142 33.9149C115.71 34.4849 116.85 35.3399 117.705 36.1949C118.132 36.9074 118.56 37.9049 118.56 39.1874Z"
    fill="white"/>
  <path
    d="M128.25 33.3449H124.972V39.7574C124.972 41.3249 125.542 42.1799 126.682 42.1799C127.252 42.1799 127.68 42.1799 127.965 42.0374L128.107 44.3174C127.537 44.6024 126.825 44.6024 125.827 44.6024C124.687 44.6024 123.69 44.3174 123.12 43.6049C122.407 42.8924 122.122 41.7524 122.122 40.0424V33.3449H120.127V31.0649H122.122V28.6424L124.972 27.7874V31.0649H128.25V33.3449Z"
    fill="white"/>
  <path
    d="M142.927 37.6201C142.927 39.6151 142.357 41.3251 141.217 42.6076C139.935 43.8901 138.367 44.6026 136.372 44.6026C134.377 44.6026 132.81 43.8901 131.67 42.6076C130.53 41.3251 129.96 39.7576 129.96 37.7626C129.96 35.7676 130.53 34.0576 131.812 32.7751C132.952 31.4926 134.662 30.7801 136.657 30.7801C138.652 30.7801 140.22 31.4926 141.36 32.7751C142.357 34.0576 142.927 35.6251 142.927 37.6201ZM139.792 37.7626C139.792 36.4801 139.507 35.4826 138.937 34.6276C138.367 33.6301 137.37 33.0601 136.23 33.0601C135.09 33.0601 134.092 33.6301 133.522 34.6276C132.952 35.4826 132.667 36.6226 132.667 37.7626C132.667 39.0451 132.952 40.0426 133.522 40.8976C134.092 41.8951 135.09 42.4651 136.23 42.4651C137.37 42.4651 138.225 41.8951 138.937 40.8976C139.507 40.0426 139.792 38.9026 139.792 37.7626Z"
    fill="white"/>
  <path
    d="M152.475 33.6298C152.19 33.6298 151.905 33.4873 151.478 33.4873C150.48 33.4873 149.625 33.9148 149.055 34.6273C148.628 35.3398 148.343 36.1948 148.343 37.1923V44.1748H145.35V35.0548C145.35 33.4873 145.35 32.2048 145.208 30.9223H147.773L147.915 33.4873H148.058C148.343 32.6323 148.913 31.9198 149.483 31.3498C150.195 30.9223 150.908 30.6373 151.62 30.6373C151.905 30.6373 152.19 30.6373 152.333 30.6373V33.6298H152.475Z"
    fill="white"/>
  <path
    d="M165.585 37.0501C165.585 37.6201 165.585 38.0476 165.443 38.3326H156.608C156.608 39.6151 157.035 40.6126 157.89 41.3251C158.603 41.8951 159.6 42.3226 160.74 42.3226C162.023 42.3226 163.305 42.1801 164.303 41.7526L164.73 43.7476C163.448 44.3176 162.023 44.6026 160.313 44.6026C158.318 44.6026 156.608 44.0326 155.468 42.7501C154.328 41.6101 153.758 39.9001 153.758 37.9051C153.758 35.9101 154.328 34.2001 155.325 32.9176C156.465 31.4926 158.033 30.7801 160.028 30.7801C161.88 30.7801 163.448 31.4926 164.303 32.9176C165.3 34.0576 165.585 35.4826 165.585 37.0501ZM162.878 36.3376C162.878 35.4826 162.735 34.7701 162.308 34.0576C161.738 33.2026 161.025 32.7751 160.028 32.7751C159.03 32.7751 158.318 33.2026 157.748 33.9151C157.32 34.4851 157.035 35.3401 156.893 36.1951H162.878V36.3376Z"
    fill="white"/>
  <path
    d="M64.6956 14.6773C64.6956 16.2448 64.2681 17.5273 63.2706 18.3823C62.4156 19.0948 61.1331 19.5223 59.4231 19.5223C58.5681 19.5223 57.8556 19.5223 57.2856 19.3798V10.5448C57.9981 10.4023 58.8531 10.4023 59.8506 10.4023C61.4181 10.4023 62.5581 10.6873 63.4131 11.3998C64.1256 12.1123 64.6956 13.2523 64.6956 14.6773ZM63.1281 14.6773C63.1281 13.6798 62.8431 12.8248 62.2731 12.2548C61.7031 11.6848 60.8481 11.3998 59.8506 11.3998C59.4231 11.3998 58.9956 11.3998 58.7106 11.5423V18.2398C58.8531 18.2398 59.2806 18.2398 59.7081 18.2398C60.8481 18.2398 61.7031 17.9548 62.2731 17.3848C62.8431 16.8148 63.1281 15.8173 63.1281 14.6773Z"
    fill="white"/>
  <path
    d="M72.675 16.1025C72.675 17.1 72.39 17.955 71.82 18.525C71.25 19.2375 70.395 19.5225 69.3975 19.5225C68.4 19.5225 67.6875 19.2375 67.1175 18.525C66.5475 17.955 66.2625 17.1 66.2625 16.1025C66.2625 15.105 66.5475 14.25 67.1175 13.68C67.6875 12.9675 68.5425 12.6825 69.54 12.6825C70.5375 12.6825 71.25 12.9675 71.82 13.68C72.39 14.25 72.675 15.105 72.675 16.1025ZM71.25 16.1025C71.25 15.5325 71.1075 14.9625 70.8225 14.535C70.5375 13.965 70.11 13.8225 69.54 13.8225C68.97 13.8225 68.5425 14.1075 68.2575 14.535C67.9725 14.9625 67.83 15.5325 67.83 16.1025C67.83 16.6725 67.9725 17.2425 68.2575 17.67C68.5425 18.24 68.97 18.3825 69.54 18.3825C70.11 18.3825 70.5375 18.0975 70.8225 17.5275C71.1075 17.2425 71.25 16.6725 71.25 16.1025Z"
    fill="white"/>
  <path
    d="M83.6481 12.8248L81.6531 19.3798H80.3706L79.5156 16.5298C79.2306 15.8173 79.0881 15.1048 78.9456 14.3923C78.8031 15.1048 78.6606 15.8173 78.3756 16.5298L77.5206 19.3798H76.2381L74.1006 12.8248H75.5256L76.2381 15.9598C76.3806 16.6723 76.5231 17.3848 76.6656 18.0973C76.8081 17.5273 76.9506 16.8148 77.2356 15.9598L78.0906 12.8248H79.2306L80.0856 15.8173C80.3706 16.5298 80.5131 17.2423 80.6556 17.9548C80.7981 17.2423 80.9406 16.5298 81.0831 15.8173L81.9381 12.8248H83.6481Z"
    fill="white"/>
  <path
    d="M91.0575 19.3796H89.6325V15.6746C89.6325 14.5346 89.205 13.9646 88.35 13.9646C87.9225 13.9646 87.6375 14.1071 87.3525 14.3921C87.0675 14.6771 86.925 15.1046 86.925 15.5321V19.3796H85.5V14.6771C85.5 14.1071 85.5 13.5371 85.5 12.8246H86.7825V13.8221C86.925 13.5371 87.21 13.2521 87.495 12.9671C87.9225 12.6821 88.35 12.5396 88.7775 12.5396C89.3475 12.5396 89.9175 12.6821 90.345 13.1096C90.915 13.5371 91.0575 14.2496 91.0575 15.2471V19.3796Z"
    fill="white"/>
  <path d="M95.0478 19.3801H93.6228V9.83258H95.0478V19.3801Z" fill="white"/>
  <path
    d="M103.598 16.1025C103.598 17.1 103.313 17.955 102.743 18.525C102.173 19.2375 101.318 19.5225 100.32 19.5225C99.3228 19.5225 98.6103 19.2375 98.0403 18.525C97.4703 17.955 97.1853 17.1 97.1853 16.1025C97.1853 15.105 97.4703 14.25 98.0403 13.68C98.6103 13.11 99.4653 12.6825 100.463 12.6825C101.46 12.6825 102.173 12.9675 102.743 13.68C103.313 14.25 103.598 15.105 103.598 16.1025ZM102.173 16.1025C102.173 15.5325 102.03 14.9625 101.745 14.535C101.46 13.965 101.033 13.8225 100.463 13.8225C99.8928 13.8225 99.4653 14.1075 99.1803 14.535C98.8953 14.9625 98.7528 15.5325 98.7528 16.1025C98.7528 16.6725 98.8953 17.2425 99.1803 17.67C99.4653 18.24 99.8928 18.3825 100.463 18.3825C101.033 18.3825 101.46 18.0975 101.745 17.5275C102.03 17.2425 102.173 16.6725 102.173 16.1025Z"
    fill="white"/>
  <path
    d="M110.581 19.38H109.298L109.156 18.6675C108.728 19.2375 108.016 19.5225 107.303 19.5225C106.733 19.5225 106.163 19.38 105.878 18.9525C105.593 18.525 105.308 18.0975 105.308 17.67C105.308 16.815 105.593 16.245 106.306 15.8175C107.018 15.39 107.873 15.2475 109.156 15.2475V15.105C109.156 14.25 108.728 13.8225 107.873 13.8225C107.161 13.8225 106.733 13.965 106.163 14.25L105.878 13.2525C106.448 12.825 107.161 12.6825 108.158 12.6825C109.868 12.6825 110.723 13.5375 110.723 15.39V17.8125C110.581 18.525 110.581 18.9525 110.581 19.38ZM109.156 17.1V16.1025C107.588 16.1025 106.733 16.53 106.733 17.385C106.733 17.67 106.876 17.955 107.018 18.0975C107.161 18.24 107.446 18.3825 107.731 18.3825C108.016 18.3825 108.301 18.24 108.586 18.0975C108.871 17.955 109.013 17.67 109.156 17.385C109.156 17.385 109.156 17.2425 109.156 17.1Z"
    fill="white"/>
  <path
    d="M118.844 19.3799H117.562V18.3824C117.134 19.2374 116.422 19.5224 115.424 19.5224C114.569 19.5224 113.999 19.2374 113.429 18.6674C112.859 18.0974 112.717 17.2424 112.717 16.2449C112.717 15.2474 113.002 14.3924 113.572 13.6799C114.142 13.1099 114.854 12.8249 115.567 12.8249C116.422 12.8249 116.992 13.1099 117.419 13.6799V9.97488H118.844V17.6699C118.844 18.2399 118.844 18.8099 118.844 19.3799ZM117.419 16.6724V15.5324C117.419 15.3899 117.419 15.2474 117.419 15.1049C117.277 14.8199 117.134 14.5349 116.849 14.2499C116.564 13.9649 116.279 13.9649 115.852 13.9649C115.282 13.9649 114.854 14.2499 114.569 14.6774C114.284 15.1049 114.142 15.6749 114.142 16.3874C114.142 17.0999 114.284 17.5274 114.569 17.9549C114.854 18.3824 115.282 18.6674 115.852 18.6674C116.279 18.6674 116.707 18.5249 116.992 18.0974C117.277 17.5274 117.419 17.0999 117.419 16.6724Z"
    fill="white"/>
  <path
    d="M131.242 16.1025C131.242 17.1 130.957 17.955 130.387 18.525C129.817 19.2375 128.962 19.5225 127.964 19.5225C126.967 19.5225 126.254 19.2375 125.684 18.525C125.114 17.955 124.829 17.1 124.829 16.1025C124.829 15.105 125.114 14.25 125.684 13.68C126.254 12.9675 127.109 12.6825 128.107 12.6825C129.104 12.6825 129.817 12.9675 130.387 13.68C130.957 14.25 131.242 15.105 131.242 16.1025ZM129.674 16.1025C129.674 15.5325 129.532 14.9625 129.247 14.535C128.962 13.965 128.534 13.8225 127.964 13.8225C127.394 13.8225 126.967 14.1075 126.682 14.535C126.397 14.9625 126.254 15.5325 126.254 16.1025C126.254 16.6725 126.397 17.2425 126.682 17.67C126.967 18.24 127.394 18.3825 127.964 18.3825C128.534 18.3825 128.962 18.0975 129.247 17.5275C129.532 17.2425 129.674 16.6725 129.674 16.1025Z"
    fill="white"/>
  <path
    d="M139.08 19.3796H137.655V15.6746C137.655 14.5346 137.227 13.9646 136.372 13.9646C135.945 13.9646 135.66 14.1071 135.375 14.3921C135.09 14.6771 134.947 15.1046 134.947 15.5321V19.3796H133.522V14.6771C133.522 14.1071 133.522 13.5371 133.522 12.8246H134.805V13.8221C134.947 13.5371 135.232 13.2521 135.517 12.9671C135.945 12.6821 136.372 12.5396 136.8 12.5396C137.37 12.5396 137.94 12.6821 138.367 13.1096C138.937 13.5371 139.08 14.2496 139.08 15.2471V19.3796Z"
    fill="white"/>
  <path
    d="M148.771 13.9648H147.203V17.0998C147.203 17.9548 147.488 18.2398 148.058 18.2398C148.343 18.2398 148.486 18.2398 148.771 18.2398V19.3798C148.486 19.5223 148.058 19.5223 147.631 19.5223C147.061 19.5223 146.633 19.3798 146.348 18.9523C146.063 18.6673 145.921 17.9548 145.921 17.2423V13.9648H144.923V12.8248H145.921V11.6848L147.346 11.2573V12.8248H148.913V13.9648H148.771Z"
    fill="white"/>
  <path
    d="M156.466 19.3801H155.041V15.6751C155.041 14.5351 154.613 13.9651 153.758 13.9651C153.046 13.9651 152.618 14.2501 152.333 14.9626C152.333 15.1051 152.333 15.2476 152.333 15.5326V19.3801H150.908V9.83258H152.333V13.8226C152.761 13.1101 153.473 12.6826 154.328 12.6826C154.898 12.6826 155.468 12.8251 155.753 13.2526C156.181 13.6801 156.466 14.5351 156.466 15.3901V19.3801Z"
    fill="white"/>
  <path
    d="M164.303 15.8173C164.303 16.1023 164.303 16.2448 164.303 16.5298H160.028C160.028 17.2423 160.313 17.6698 160.598 17.9548C161.025 18.2398 161.453 18.3823 162.023 18.3823C162.735 18.3823 163.305 18.2398 163.733 18.0973L164.018 19.0948C163.448 19.3798 162.735 19.5223 161.88 19.5223C160.883 19.5223 160.028 19.2373 159.458 18.6673C158.888 18.0973 158.603 17.2423 158.603 16.2448C158.603 15.2473 158.888 14.3923 159.458 13.8223C160.028 13.1098 160.74 12.8248 161.738 12.8248C162.735 12.8248 163.448 13.1098 163.875 13.8223C164.16 14.2498 164.303 14.9623 164.303 15.8173ZM163.02 15.3898C163.02 14.9623 162.878 14.5348 162.735 14.2498C162.45 13.8223 162.165 13.6798 161.595 13.6798C161.168 13.6798 160.74 13.8223 160.455 14.2498C160.17 14.5348 160.028 14.9623 160.028 15.3898H163.02Z"
    fill="white"/>
</svg>
