<svg width="183" height="57" viewBox="0 0 183 57" fill="none" xmlns="http://www.w3.org/2000/svg">
<path d="M177.175 57H6.17461C3.03961 57 0.474609 54.435 0.474609 51.3V5.7C0.474609 2.565 3.03961 0 6.17461 0H177.175C180.31 0 182.875 2.565 182.875 5.7V51.3C182.875 54.435 180.31 57 177.175 57Z" fill="#1E1F23"/>
<path fill-rule="evenodd" clip-rule="evenodd" d="M14.439 27.9301V12.9676C14.439 12.1126 15.1515 11.4001 15.864 11.4001C16.5765 11.4001 16.8615 11.5426 17.289 11.8276L44.7915 26.9326C45.3615 27.2176 45.6465 27.6451 45.6465 28.0726C45.6465 28.5001 45.3615 28.9276 44.7915 29.2126L17.289 44.3176C17.004 44.4601 16.5765 44.7451 15.864 44.7451C15.1515 44.7451 14.439 44.0326 14.439 43.1776V27.9301Z" fill="url(#paint0_linear_688_30172)"/>
<path fill-rule="evenodd" clip-rule="evenodd" d="M32.2521 28.0726L15.5796 11.4001C15.7221 11.4001 15.7221 11.4001 15.8646 11.4001C16.5771 11.4001 16.8621 11.5426 17.2896 11.8276L37.5246 22.9426L32.2521 28.0726Z" fill="url(#paint1_linear_688_30172)"/>
<path fill-rule="evenodd" clip-rule="evenodd" d="M37.3815 33.0599L32.2515 27.9299L37.524 22.6574L44.7915 26.6474C45.3615 26.9324 45.6465 27.3599 45.6465 27.7874C45.6465 28.2149 45.3615 28.6424 44.7915 28.9274L37.3815 33.0599Z" fill="url(#paint2_linear_688_30172)"/>
<path fill-rule="evenodd" clip-rule="evenodd" d="M15.7224 44.4602L32.2524 27.9302L37.3824 33.0602L17.2899 44.0327C16.8624 44.3177 16.5774 44.4602 15.7224 44.4602C15.8649 44.4602 15.8649 44.4602 15.7224 44.4602Z" fill="url(#paint3_linear_688_30172)"/>
<path fill-rule="evenodd" clip-rule="evenodd" d="M101.792 48.3076C101.08 47.7376 100.51 46.7401 100.225 46.1701L102.505 45.1726C102.647 45.4576 102.932 45.8851 103.217 46.3126C103.787 46.8826 104.642 47.4526 105.497 47.4526C106.352 47.4526 107.35 47.0251 107.92 46.3126C108.347 45.6001 108.632 44.8876 108.632 43.8901V43.0351C106.922 45.1726 103.36 44.8876 101.365 42.6076C99.2272 40.3276 99.2272 36.4801 101.365 34.2001C103.502 32.0626 106.637 31.7776 108.49 33.7726V32.7751H110.912V43.4626C110.912 46.1701 109.915 47.7376 108.632 48.7351C107.777 49.4476 106.495 49.7326 105.355 49.7326C104.072 49.5901 102.79 49.1626 101.792 48.3076ZM161.5 48.8776L163.922 43.1776L159.647 33.3451H162.07L165.062 40.3276L168.055 33.3451H170.477L163.922 48.8776H161.5ZM149.957 43.4626C149.245 42.7501 148.96 41.7526 148.96 40.7551C148.96 39.9001 149.245 39.0451 149.815 38.4751C150.812 37.4776 152.237 37.0501 153.805 37.0501C154.802 37.0501 155.657 37.1926 156.37 37.6201C156.37 35.9101 154.945 35.1976 153.805 35.1976C152.807 35.1976 151.81 35.7676 151.382 36.7651L149.245 35.9101C149.672 34.9126 150.812 33.0601 153.662 33.0601C155.087 33.0601 156.512 33.4876 157.367 34.4851C158.222 35.4826 158.507 36.6226 158.507 38.1901V44.1751H156.085V43.1776C155.8 43.6051 155.23 43.8901 154.802 44.1751C154.232 44.4601 153.52 44.6026 152.807 44.6026C151.952 44.4601 150.67 44.1751 149.957 43.4626ZM74.0047 38.3326C74.0047 35.4826 76.1422 32.3476 79.9897 32.3476C83.6947 32.3476 85.9747 35.4826 85.9747 38.3326C85.9747 41.1826 83.8372 44.3176 79.9897 44.3176C76.1422 44.3176 74.0047 41.1826 74.0047 38.3326ZM86.8297 38.3326C86.8297 35.4826 88.9672 32.3476 92.8147 32.3476C96.5197 32.3476 98.7997 35.4826 98.7997 38.3326C98.7997 41.1826 96.6622 44.3176 92.8147 44.3176C89.1097 44.3176 86.8297 41.1826 86.8297 38.3326ZM57.9022 41.4676C54.3397 37.9051 54.4822 32.0626 58.0447 28.3576C59.8972 26.5051 62.1772 25.6501 64.5997 25.6501C66.8797 25.6501 69.1597 26.5051 70.8697 28.2151L69.1597 30.0676C66.5947 27.5026 62.4622 27.6451 60.0397 30.2101C57.4747 32.9176 57.4747 37.0501 60.0397 39.7576C62.6047 42.4651 66.8797 42.6076 69.4447 39.9001C70.2997 39.0451 70.5847 37.9051 70.7272 36.7651H64.7422V34.2001H73.1497C73.2922 34.7701 73.2922 35.4826 73.2922 36.1951C73.2922 38.3326 72.4372 40.4701 71.0122 41.8951C69.4447 43.4626 67.1647 44.3176 64.8847 44.3176C62.3197 44.1751 59.7547 43.3201 57.9022 41.4676ZM118.18 42.4651C116.042 40.1851 116.042 36.3376 118.18 33.9151C120.317 31.6351 123.88 31.6351 125.875 33.9151C126.587 34.6276 127.015 35.6251 127.442 36.6226L119.605 39.9001C120.032 40.8976 121.03 41.7526 122.455 41.7526C123.737 41.7526 124.592 41.3251 125.447 40.0426L127.585 41.4676C127.3 41.7526 127.015 42.0376 126.872 42.3226C124.45 44.7451 120.317 44.7451 118.18 42.4651ZM133 44.1751V28.3576H138.13C141.122 28.3576 143.545 30.4951 143.545 33.0601C143.545 35.6251 141.407 37.7626 138.7 37.7626H135.565V44.0326H133V44.1751ZM144.97 44.1751V28.3576H147.392V44.1751H144.97ZM112.765 43.8901V26.2201H115.33V43.8901H112.765ZM156.227 39.4726C155.657 39.0451 154.802 38.9026 153.947 38.9026C152.237 38.9026 151.24 39.7576 151.24 40.7551C151.24 41.7526 152.237 42.3226 153.235 42.3226C154.66 42.3226 156.227 41.1826 156.227 39.4726ZM83.2672 38.3326C83.2672 36.6226 82.1272 34.7701 79.9897 34.7701C77.8522 34.7701 76.7122 36.6226 76.7122 38.3326C76.7122 40.0426 77.8522 41.8951 79.9897 41.8951C81.9847 41.8951 83.2672 40.0426 83.2672 38.3326ZM96.0922 38.3326C96.0922 36.6226 94.9522 34.7701 92.8147 34.7701C90.6772 34.7701 89.5372 36.6226 89.5372 38.3326C89.5372 40.0426 90.6772 41.8951 92.8147 41.8951C94.9522 41.8951 96.0922 40.0426 96.0922 38.3326ZM108.775 39.3301C108.775 39.1876 108.775 39.0451 108.917 38.9026C108.917 38.7601 108.917 38.4751 108.917 38.3326C108.917 38.1901 108.917 37.9051 108.917 37.7626V37.6201C108.917 37.4776 108.775 37.1926 108.775 37.0501C108.347 35.6251 107.065 34.6276 105.782 34.6276C104.072 34.6276 102.647 36.3376 102.647 38.1901C102.647 40.1851 104.072 41.7526 105.925 41.7526C107.065 41.8951 108.205 40.8976 108.775 39.3301ZM119.177 38.0476L124.45 35.7676C123.88 34.7701 123.025 34.4851 122.312 34.4851C120.175 34.6276 118.892 36.9076 119.177 38.0476ZM140.98 33.2026C140.98 31.7776 139.84 30.7801 138.272 30.7801H135.422V35.7676H138.415C139.84 35.7676 140.98 34.6276 140.98 33.2026Z" fill="white"/>
<path fill-rule="evenodd" clip-rule="evenodd" d="M163.352 46.0275H163.21V45.885H163.352H163.21V46.0275H163.352Z" fill="white"/>
<path fill-rule="evenodd" clip-rule="evenodd" d="M163.637 46.0275C163.637 45.885 163.637 45.885 163.637 46.0275C163.495 45.885 163.495 45.885 163.637 46.0275C163.495 46.0275 163.495 46.0275 163.637 46.0275ZM163.637 45.885C163.637 46.0275 163.637 46.0275 163.637 45.885C163.637 46.0275 163.495 46.0275 163.637 45.885C163.495 45.885 163.637 45.885 163.637 45.885Z" fill="white"/>
<path fill-rule="evenodd" clip-rule="evenodd" d="M163.78 45.885H163.637H163.78V46.0275V45.885Z" fill="white"/>
<path d="M55.9077 14.3925C55.9077 11.8275 57.7602 10.26 60.0402 10.26C61.6077 10.26 62.6052 10.9725 63.3177 11.97L62.1777 12.6825C61.7502 12.1125 61.0377 11.685 60.0402 11.685C58.4727 11.685 57.3327 12.825 57.3327 14.535C57.3327 16.245 58.4727 17.385 60.0402 17.385C60.8952 17.385 61.6077 16.9575 61.8927 16.6725V15.39H59.6127V14.1075H63.4602V17.1C62.7477 17.955 61.6077 18.525 60.1827 18.525C57.7602 18.525 55.9077 16.815 55.9077 14.3925Z" fill="white"/>
<path d="M65.1699 18.3823V10.4023H70.5849V11.6848H66.4524V13.6798H70.4424V14.9623H66.4524V17.2423H70.5849V18.5248L65.1699 18.3823Z" fill="white"/>
<path d="M74.5746 18.3823V11.6848H72.1521V10.4023H78.4221V11.6848H75.9996V18.3823H74.5746Z" fill="white"/>
<path d="M83.2671 18.3823V10.4023H84.6921V18.3823H83.2671Z" fill="white"/>
<path d="M88.539 18.3823V11.6848H86.1165V10.4023H92.3864V11.6848H89.964V18.3823H88.539Z" fill="white"/>
<path d="M96.9478 14.3925C96.9478 11.97 98.6578 10.26 101.08 10.26C103.503 10.26 105.213 11.97 105.213 14.3925C105.213 16.815 103.503 18.525 101.08 18.525C98.6578 18.525 96.9478 16.6725 96.9478 14.3925ZM103.645 14.3925C103.645 12.6825 102.648 11.5425 100.938 11.5425C99.3703 11.5425 98.2303 12.825 98.2303 14.3925C98.2303 16.1025 99.2278 17.2425 100.938 17.2425C102.648 17.2425 103.645 15.96 103.645 14.3925Z" fill="white"/>
<path d="M112.337 18.3823L108.204 12.6823V18.3823H106.779V10.4023H108.204L112.337 15.9598V10.4023H113.762V18.3823H112.337Z" fill="white"/>
<defs>
<linearGradient id="paint0_linear_688_30172" x1="23.655" y1="9.3675" x2="31.6324" y2="42.1295" gradientUnits="userSpaceOnUse">
<stop stop-color="#006884"/>
<stop offset="1" stop-color="#8AD1D0"/>
</linearGradient>
<linearGradient id="paint1_linear_688_30172" x1="13.9276" y1="14.0275" x2="35.6674" y2="25.7802" gradientUnits="userSpaceOnUse">
<stop stop-color="#24BBB6"/>
<stop offset="1" stop-color="#DBE692"/>
</linearGradient>
<linearGradient id="paint2_linear_688_30172" x1="38.941" y1="33.6585" x2="38.941" y2="22.3321" gradientUnits="userSpaceOnUse">
<stop stop-color="#FCC072"/>
<stop offset="1" stop-color="#F58A5B"/>
</linearGradient>
<linearGradient id="paint3_linear_688_30172" x1="18.1374" y1="47.4087" x2="35.311" y2="29.9308" gradientUnits="userSpaceOnUse">
<stop stop-color="#712B8F"/>
<stop offset="1" stop-color="#EA1D27"/>
</linearGradient>
</defs>
</svg>
