<svg viewBox="0 0 28 27" fill="none" xmlns="http://www.w3.org/2000/svg">
<g filter="url(#filter0_d_14_370)">
<path d="M25.2812 0.906398C24.6721 0.302041 23.9422 0 23.0918 0H5.10322C4.25259 0 3.52289 0.302151 2.91364 0.906398C2.30449 1.51048 2 2.23442 2 3.07804V20.9218C2 21.7653 2.30444 22.4894 2.91364 23.0935C3.52289 23.6977 4.25275 24 5.10322 24H23.0916C23.9418 24 24.6719 23.6977 25.281 23.0935C25.8903 22.4894 26.1945 21.7653 26.1945 20.9218V3.07804C26.1944 2.23425 25.8903 1.5107 25.2812 0.906398ZM10.6873 8.64832C11.6376 7.737 12.7796 7.28112 14.1133 7.28112C15.4573 7.28112 16.6044 7.737 17.5549 8.64832C18.5054 9.55981 18.9804 10.6615 18.9804 11.9531C18.9804 13.2446 18.5054 14.3463 17.5549 15.2575C16.6044 16.1692 15.4577 16.625 14.1133 16.625C12.7797 16.625 11.6378 16.1688 10.6873 15.2575C9.73683 14.3462 9.26164 13.2446 9.26164 11.9531C9.26164 10.6615 9.73683 9.55986 10.6873 8.64832ZM23.4541 20.2814C23.4541 20.5521 23.3593 20.7785 23.1705 20.9609C22.9811 21.1432 22.7557 21.2343 22.4929 21.2343H5.6546C5.38161 21.2343 5.15304 21.1432 4.96943 20.9609C4.78554 20.7789 4.69368 20.5521 4.69368 20.2814V10.1561H6.9146C6.70468 10.8124 6.59969 11.4948 6.59969 12.203C6.59969 14.2034 7.33468 15.9089 8.80483 17.3206C10.2751 18.7318 12.0445 19.4377 14.1132 19.4377C15.4784 19.4377 16.7385 19.1147 17.894 18.4689C19.0491 17.8227 19.9621 16.9453 20.6347 15.8359C21.3068 14.7264 21.6429 13.5154 21.6429 12.203C21.6429 11.4949 21.5375 10.8126 21.3275 10.1561H23.4542V20.2815H23.4541V20.2814ZM23.4541 6.32793C23.4541 6.63002 23.3491 6.88527 23.1388 7.09357C22.9288 7.30202 22.6717 7.40611 22.367 7.40611H19.6263C19.3219 7.40611 19.0644 7.30197 18.8544 7.09357C18.6445 6.88527 18.5395 6.63002 18.5395 6.32793V3.75004C18.5395 3.45834 18.6445 3.20578 18.8544 2.99217C19.0644 2.77868 19.322 2.6718 19.6263 2.6718H22.367C22.6717 2.6718 22.9289 2.77863 23.1388 2.99217C23.3491 3.20578 23.4541 3.45834 23.4541 3.75004V6.32793Z" fill="white"/>
</g>
<defs>
<filter id="filter0_d_14_370" x="0.955933" y="0" width="26.2825" height="26.0881" filterUnits="userSpaceOnUse" color-interpolation-filters="sRGB">
<feFlood flood-opacity="0" result="BackgroundImageFix"/>
<feColorMatrix in="SourceAlpha" type="matrix" values="0 0 0 0 0 0 0 0 0 0 0 0 0 0 0 0 0 0 127 0" result="hardAlpha"/>
<feOffset dy="1.04407"/>
<feGaussianBlur stdDeviation="0.522033"/>
<feComposite in2="hardAlpha" operator="out"/>
<feColorMatrix type="matrix" values="0 0 0 0 0 0 0 0 0 0 0 0 0 0 0 0 0 0 0.4 0"/>
<feBlend mode="normal" in2="BackgroundImageFix" result="effect1_dropShadow_14_370"/>
<feBlend mode="normal" in="SourceGraphic" in2="effect1_dropShadow_14_370" result="shape"/>
</filter>
</defs>
</svg>
