<svg  viewBox="0 0 35 27" fill="none" xmlns="http://www.w3.org/2000/svg">
<g filter="url(#filter0_d_14_371)">
<path d="M33.4321 2.84123C32.2633 3.32308 31.0178 3.64246 29.7192 3.79754C31.0551 3.048 32.0747 1.87015 32.554 0.450461C31.3085 1.14831 29.9334 1.64123 28.4678 1.91631C27.2852 0.732923 25.5996 0 23.7609 0C20.1933 0 17.3212 2.72123 17.3212 6.05723C17.3212 6.53723 17.3644 6.99877 17.4705 7.43815C12.1133 7.19262 7.37293 4.77969 4.18846 1.104C3.63251 2.01046 3.3064 3.048 3.3064 4.16492C3.3064 6.26215 4.45564 8.12123 6.16869 9.19754C5.13339 9.17908 4.11774 8.89662 3.25729 8.45169C3.25729 8.47015 3.25729 8.49415 3.25729 8.51815C3.25729 11.4609 5.49093 13.9052 8.42002 14.4683C7.89549 14.6031 7.32382 14.6677 6.73054 14.6677C6.31799 14.6677 5.90152 14.6455 5.51058 14.5643C6.34549 16.9625 8.71469 18.7255 11.5318 18.7828C9.33941 20.3945 6.5557 21.3655 3.54214 21.3655C3.01369 21.3655 2.50684 21.3434 2 21.2825C4.85443 23.0123 8.23732 24 11.8854 24C23.7432 24 30.2261 14.7692 30.2261 6.768C30.2261 6.50031 30.2162 6.24185 30.2025 5.98523C31.4814 5.13231 32.556 4.06708 33.4321 2.84123Z" fill="white"/>
</g>
<defs>
<filter id="filter0_d_14_371" x="0.955933" y="0" width="33.5208" height="26.0881" filterUnits="userSpaceOnUse" color-interpolation-filters="sRGB">
<feFlood flood-opacity="0" result="BackgroundImageFix"/>
<feColorMatrix in="SourceAlpha" type="matrix" values="0 0 0 0 0 0 0 0 0 0 0 0 0 0 0 0 0 0 127 0" result="hardAlpha"/>
<feOffset dy="1.04407"/>
<feGaussianBlur stdDeviation="0.522033"/>
<feComposite in2="hardAlpha" operator="out"/>
<feColorMatrix type="matrix" values="0 0 0 0 0 0 0 0 0 0 0 0 0 0 0 0 0 0 0.4 0"/>
<feBlend mode="normal" in2="BackgroundImageFix" result="effect1_dropShadow_14_371"/>
<feBlend mode="normal" in="SourceGraphic" in2="effect1_dropShadow_14_371" result="shape"/>
</filter>
</defs>
</svg>
